solid STL generated by MeshLab
  facet normal  0.000000e+00  1.000000e+00  0.000000e+00
    outer loop
      vertex   2.100001e+00  2.936348e-01  2.000010e-01
      vertex   2.100001e+00  2.936348e-01  1.000001e-06
      vertex   7.204710e-01  2.936348e-01  2.000010e-01
    endloop
  endfacet
  facet normal  0.000000e+00  1.000000e+00  0.000000e+00
    outer loop
      vertex   7.204710e-01  2.936348e-01  2.000010e-01
      vertex   2.100001e+00  2.936348e-01  1.000001e-06
      vertex   7.204710e-01  2.936348e-01  1.000001e-06
    endloop
  endfacet
endsolid vcg
