solid STL generated by MeshLab
  facet normal -0.000000e+00  0.000000e+00  1.000000e+00
    outer loop
      vertex   7.204710e-01  2.936348e-01  2.000010e-01
      vertex   7.127891e-01  2.810721e-01  2.000010e-01
      vertex   2.100001e+00  2.936348e-01  2.000010e-01
    endloop
  endfacet
  facet normal  0.000000e+00  0.000000e+00  1.000000e+00
    outer loop
      vertex   2.100001e+00  2.936348e-01  2.000010e-01
      vertex   7.127891e-01  2.810721e-01  2.000010e-01
      vertex   7.032397e-01  2.698632e-01  2.000010e-01
    endloop
  endfacet
  facet normal  0.000000e+00  0.000000e+00  1.000000e+00
    outer loop
      vertex   2.100001e+00  2.936348e-01  2.000010e-01
      vertex   7.032397e-01  2.698632e-01  2.000010e-01
      vertex   6.920570e-01  2.602832e-01  2.000010e-01
    endloop
  endfacet
  facet normal -0.000000e+00  0.000000e+00  1.000000e+00
    outer loop
      vertex   6.039782e-01  1.960692e-01  2.000010e-01
      vertex   6.082943e-01  1.873095e-01  2.000010e-01
      vertex   6.920570e-01  2.602832e-01  2.000010e-01
    endloop
  endfacet
  facet normal  0.000000e+00  0.000000e+00  1.000000e+00
    outer loop
      vertex   6.920570e-01  2.602832e-01  2.000010e-01
      vertex   6.082943e-01  1.873095e-01  2.000010e-01
      vertex   1.451343e+00  4.797620e-02  2.000010e-01
    endloop
  endfacet
  facet normal -0.000000e+00  0.000000e+00  1.000000e+00
    outer loop
      vertex   6.920570e-01  2.602832e-01  2.000010e-01
      vertex   1.451343e+00  4.797620e-02  2.000010e-01
      vertex   2.100001e+00  2.936348e-01  2.000010e-01
    endloop
  endfacet
  facet normal  0.000000e+00  0.000000e+00  1.000000e+00
    outer loop
      vertex   2.100001e+00  2.936348e-01  2.000010e-01
      vertex   1.451343e+00  4.797620e-02  2.000010e-01
      vertex   1.491343e+00  4.800000e-02  2.000010e-01
    endloop
  endfacet
  facet normal  0.000000e+00  0.000000e+00  1.000000e+00
    outer loop
      vertex   2.100001e+00  2.936348e-01  2.000010e-01
      vertex   1.491343e+00  4.800000e-02  2.000010e-01
      vertex   2.100001e+00  4.800000e-02  2.000010e-01
    endloop
  endfacet
  facet normal -0.000000e+00  0.000000e+00  1.000000e+00
    outer loop
      vertex   6.000258e-01  1.786207e-01  2.000010e-01
      vertex   6.070638e-01  1.601043e-01  2.000010e-01
      vertex   6.082943e-01  1.873095e-01  2.000010e-01
    endloop
  endfacet
  facet normal  0.000000e+00  0.000000e+00  1.000000e+00
    outer loop
      vertex   6.082943e-01  1.873095e-01  2.000010e-01
      vertex   6.070638e-01  1.601043e-01  2.000010e-01
      vertex   6.132438e-01  1.557394e-01  2.000010e-01
    endloop
  endfacet
  facet normal  0.000000e+00  0.000000e+00  1.000000e+00
    outer loop
      vertex   6.082943e-01  1.873095e-01  2.000010e-01
      vertex   6.132438e-01  1.557394e-01  2.000010e-01
      vertex   6.181624e-01  1.499904e-01  2.000010e-01
    endloop
  endfacet
  facet normal  0.000000e+00  0.000000e+00  1.000000e+00
    outer loop
      vertex   5.913401e-01  1.868988e-01  2.000010e-01
      vertex   4.894722e-01  1.732088e-01  2.000010e-01
      vertex   6.000258e-01  1.786207e-01  2.000010e-01
    endloop
  endfacet
  facet normal  0.000000e+00  0.000000e+00  1.000000e+00
    outer loop
      vertex   6.000258e-01  1.786207e-01  2.000010e-01
      vertex   4.894722e-01  1.732088e-01  2.000010e-01
      vertex   4.935800e-01  1.709595e-01  2.000010e-01
    endloop
  endfacet
  facet normal  0.000000e+00  0.000000e+00  1.000000e+00
    outer loop
      vertex   6.000258e-01  1.786207e-01  2.000010e-01
      vertex   4.935800e-01  1.709595e-01  2.000010e-01
      vertex   5.574127e-01  1.604469e-01  2.000010e-01
    endloop
  endfacet
  facet normal  0.000000e+00  0.000000e+00  1.000000e+00
    outer loop
      vertex   5.574127e-01  1.604469e-01  2.000010e-01
      vertex   4.935800e-01  1.709595e-01  2.000010e-01
      vertex   5.467445e-01  1.602776e-01  2.000010e-01
    endloop
  endfacet
  facet normal  0.000000e+00  0.000000e+00  1.000000e+00
    outer loop
      vertex   5.467445e-01  1.602776e-01  2.000010e-01
      vertex   4.935800e-01  1.709595e-01  2.000010e-01
      vertex   4.970057e-01  1.677661e-01  2.000010e-01
    endloop
  endfacet
  facet normal  0.000000e+00  0.000000e+00  1.000000e+00
    outer loop
      vertex   5.467445e-01  1.602776e-01  2.000010e-01
      vertex   4.970057e-01  1.677661e-01  2.000010e-01
      vertex   5.360762e-01  1.602776e-01  2.000010e-01
    endloop
  endfacet
  facet normal  0.000000e+00  0.000000e+00  1.000000e+00
    outer loop
      vertex   5.360762e-01  1.602776e-01  2.000010e-01
      vertex   4.970057e-01  1.677661e-01  2.000010e-01
      vertex   5.131612e-01  1.623766e-01  2.000010e-01
    endloop
  endfacet
  facet normal  0.000000e+00  0.000000e+00  1.000000e+00
    outer loop
      vertex   5.360762e-01  1.602776e-01  2.000010e-01
      vertex   5.131612e-01  1.623766e-01  2.000010e-01
      vertex   5.254080e-01  1.604469e-01  2.000010e-01
    endloop
  endfacet
  facet normal  0.000000e+00  0.000000e+00  1.000000e+00
    outer loop
      vertex   5.254080e-01  1.604469e-01  2.000010e-01
      vertex   5.131612e-01  1.623766e-01  2.000010e-01
      vertex   5.147398e-01  1.607856e-01  2.000010e-01
    endloop
  endfacet
  facet normal  0.000000e+00 -0.000000e+00  1.000000e+00
    outer loop
      vertex   4.894722e-01  1.732088e-01  2.000010e-01
      vertex   5.913401e-01  1.868988e-01  2.000010e-01
      vertex   4.849364e-01  1.743749e-01  2.000010e-01
    endloop
  endfacet
  facet normal  0.000000e+00  0.000000e+00  1.000000e+00
    outer loop
      vertex   4.849364e-01  1.743749e-01  2.000010e-01
      vertex   5.913401e-01  1.868988e-01  2.000010e-01
      vertex   5.692603e-01  2.211352e-01  2.000010e-01
    endloop
  endfacet
  facet normal  0.000000e+00 -0.000000e+00  1.000000e+00
    outer loop
      vertex   4.849364e-01  1.743749e-01  2.000010e-01
      vertex   5.692603e-01  2.211352e-01  2.000010e-01
      vertex   4.553448e-01  1.743749e-01  2.000010e-01
    endloop
  endfacet
  facet normal  0.000000e+00 -0.000000e+00  1.000000e+00
    outer loop
      vertex   4.553448e-01  1.743749e-01  2.000010e-01
      vertex   5.692603e-01  2.211352e-01  2.000010e-01
      vertex   1.000000e-06  1.480006e-01  2.000010e-01
    endloop
  endfacet
  facet normal  0.000000e+00  0.000000e+00  1.000000e+00
    outer loop
      vertex   4.553448e-01  1.743749e-01  2.000010e-01
      vertex   1.000000e-06  1.480006e-01  2.000010e-01
      vertex   3.833342e-01  1.599812e-01  2.000010e-01
    endloop
  endfacet
  facet normal  0.000000e+00  0.000000e+00  1.000000e+00
    outer loop
      vertex   3.833342e-01  1.599812e-01  2.000010e-01
      vertex   1.000000e-06  1.480006e-01  2.000010e-01
      vertex   3.713112e-01  1.480006e-01  2.000010e-01
    endloop
  endfacet
  facet normal  0.000000e+00  0.000000e+00  1.000000e+00
    outer loop
      vertex   5.692603e-01  2.211352e-01  2.000010e-01
      vertex   5.552608e-01  2.593932e-01  2.000010e-01
      vertex   1.000000e-06  1.480006e-01  2.000010e-01
    endloop
  endfacet
  facet normal  0.000000e+00  0.000000e+00  1.000000e+00
    outer loop
      vertex   1.000000e-06  1.480006e-01  2.000010e-01
      vertex   5.552608e-01  2.593932e-01  2.000010e-01
      vertex   5.500289e-01  2.997946e-01  2.000010e-01
    endloop
  endfacet
  facet normal  0.000000e+00 -0.000000e+00  1.000000e+00
    outer loop
      vertex   1.000000e-06  1.480006e-01  2.000010e-01
      vertex   5.500289e-01  2.997946e-01  2.000010e-01
      vertex   1.000000e-06  4.485342e-01  2.000010e-01
    endloop
  endfacet
  facet normal  0.000000e+00  0.000000e+00  1.000000e+00
    outer loop
      vertex   1.000000e-06  4.485342e-01  2.000010e-01
      vertex   5.500289e-01  2.997946e-01  2.000010e-01
      vertex   5.439674e-01  3.207096e-01  2.000010e-01
    endloop
  endfacet
  facet normal  0.000000e+00  0.000000e+00  1.000000e+00
    outer loop
      vertex   1.000000e-06  4.485342e-01  2.000010e-01
      vertex   5.439674e-01  3.207096e-01  2.000010e-01
      vertex   5.428809e-01  3.424580e-01  2.000010e-01
    endloop
  endfacet
  facet normal  0.000000e+00 -0.000000e+00  1.000000e+00
    outer loop
      vertex   5.428809e-01  3.424580e-01  2.000010e-01
      vertex   5.468276e-01  3.638729e-01  2.000010e-01
      vertex   1.000000e-06  4.485342e-01  2.000010e-01
    endloop
  endfacet
  facet normal  0.000000e+00  0.000000e+00  1.000000e+00
    outer loop
      vertex   1.000000e-06  4.485342e-01  2.000010e-01
      vertex   5.468276e-01  3.638729e-01  2.000010e-01
      vertex   5.555956e-01  3.838052e-01  2.000010e-01
    endloop
  endfacet
  facet normal  0.000000e+00  0.000000e+00  1.000000e+00
    outer loop
      vertex   1.000000e-06  4.485342e-01  2.000010e-01
      vertex   5.555956e-01  3.838052e-01  2.000010e-01
      vertex   5.687147e-01  4.011852e-01  2.000010e-01
    endloop
  endfacet
  facet normal  0.000000e+00 -0.000000e+00  1.000000e+00
    outer loop
      vertex   5.687147e-01  4.011852e-01  2.000010e-01
      vertex   5.854806e-01  4.150805e-01  2.000010e-01
      vertex   1.000000e-06  4.485342e-01  2.000010e-01
    endloop
  endfacet
  facet normal -0.000000e+00  0.000000e+00  1.000000e+00
    outer loop
      vertex   1.000000e-06  4.485342e-01  2.000010e-01
      vertex   5.854806e-01  4.150805e-01  2.000010e-01
      vertex   5.854806e-01  4.485342e-01  2.000010e-01
    endloop
  endfacet
  facet normal  0.000000e+00  0.000000e+00  1.000000e+00
    outer loop
      vertex   3.833342e-01  1.599812e-01  2.000010e-01
      vertex   4.553448e-01  1.599812e-01  2.000010e-01
      vertex   4.553448e-01  1.743749e-01  2.000010e-01
    endloop
  endfacet
  facet normal  0.000000e+00  0.000000e+00  1.000000e+00
    outer loop
      vertex   4.970057e-01  1.677661e-01  2.000010e-01
      vertex   5.019144e-01  1.647088e-01  2.000010e-01
      vertex   5.131612e-01  1.623766e-01  2.000010e-01
    endloop
  endfacet
  facet normal  0.000000e+00  0.000000e+00  1.000000e+00
    outer loop
      vertex   5.131612e-01  1.623766e-01  2.000010e-01
      vertex   5.019144e-01  1.647088e-01  2.000010e-01
      vertex   5.074001e-01  1.628788e-01  2.000010e-01
    endloop
  endfacet
  facet normal  0.000000e+00  0.000000e+00  1.000000e+00
    outer loop
      vertex   5.574127e-01  1.604469e-01  2.000010e-01
      vertex   5.680810e-01  1.607856e-01  2.000010e-01
      vertex   6.000258e-01  1.786207e-01  2.000010e-01
    endloop
  endfacet
  facet normal  0.000000e+00  0.000000e+00  1.000000e+00
    outer loop
      vertex   6.000258e-01  1.786207e-01  2.000010e-01
      vertex   5.680810e-01  1.607856e-01  2.000010e-01
      vertex   5.787069e-01  1.612936e-01  2.000010e-01
    endloop
  endfacet
  facet normal  0.000000e+00  0.000000e+00  1.000000e+00
    outer loop
      vertex   6.000258e-01  1.786207e-01  2.000010e-01
      vertex   5.787069e-01  1.612936e-01  2.000010e-01
      vertex   5.893751e-01  1.619709e-01  2.000010e-01
    endloop
  endfacet
  facet normal  0.000000e+00  0.000000e+00  1.000000e+00
    outer loop
      vertex   5.893751e-01  1.619709e-01  2.000010e-01
      vertex   6.000010e-01  1.628176e-01  2.000010e-01
      vertex   6.000258e-01  1.786207e-01  2.000010e-01
    endloop
  endfacet
  facet normal  0.000000e+00  0.000000e+00  1.000000e+00
    outer loop
      vertex   6.000258e-01  1.786207e-01  2.000010e-01
      vertex   6.000010e-01  1.628176e-01  2.000010e-01
      vertex   6.070638e-01  1.601043e-01  2.000010e-01
    endloop
  endfacet
  facet normal  0.000000e+00  0.000000e+00  1.000000e+00
    outer loop
      vertex   6.082943e-01  1.873095e-01  2.000010e-01
      vertex   6.181624e-01  1.499904e-01  2.000010e-01
      vertex   1.451343e+00  4.797620e-02  2.000010e-01
    endloop
  endfacet
  facet normal  0.000000e+00  0.000000e+00  1.000000e+00
    outer loop
      vertex   1.451343e+00  4.797620e-02  2.000010e-01
      vertex   6.181624e-01  1.499904e-01  2.000010e-01
      vertex   6.913160e-01  5.551115e-14  2.000010e-01
    endloop
  endfacet
  facet normal  0.000000e+00  0.000000e+00  1.000000e+00
    outer loop
      vertex   1.451343e+00  4.797620e-02  2.000010e-01
      vertex   6.913160e-01  5.551115e-14  2.000010e-01
      vertex   1.451343e+00  5.551115e-14  2.000010e-01
    endloop
  endfacet
endsolid vcg
