solid STL generated by MeshLab
  facet normal  0.000000e+00 -0.000000e+00 -1.000000e+00
    outer loop
      vertex   7.204710e-01  2.936348e-01  1.000001e-06
      vertex   2.100001e+00  2.936348e-01  1.000001e-06
      vertex   7.127891e-01  2.810721e-01  1.000001e-06
    endloop
  endfacet
  facet normal  0.000000e+00 -0.000000e+00 -1.000000e+00
    outer loop
      vertex   7.127891e-01  2.810721e-01  1.000001e-06
      vertex   2.100001e+00  2.936348e-01  1.000001e-06
      vertex   7.032397e-01  2.698632e-01  1.000001e-06
    endloop
  endfacet
  facet normal -1.854552e-12  1.089689e-10 -1.000000e+00
    outer loop
      vertex   7.032397e-01  2.698632e-01  1.000001e-06
      vertex   2.100001e+00  2.936348e-01  1.000001e-06
      vertex   6.920570e-01  2.602832e-01  1.000000e-06
    endloop
  endfacet
  facet normal  9.120840e-13 -7.825163e-12 -1.000000e+00
    outer loop
      vertex   6.920570e-01  2.602832e-01  1.000000e-06
      vertex   2.100001e+00  2.936348e-01  1.000001e-06
      vertex   7.263265e-01  1.335223e-01  1.000001e-06
    endloop
  endfacet
  facet normal -2.486355e-12 -8.743924e-12 -1.000000e+00
    outer loop
      vertex   6.920570e-01  2.602832e-01  1.000000e-06
      vertex   7.263265e-01  1.335223e-01  1.000001e-06
      vertex   6.910607e-01  1.435502e-01  1.000001e-06
    endloop
  endfacet
  facet normal  0.000000e+00  0.000000e+00 -1.000000e+00
    outer loop
      vertex   2.100001e+00  4.800000e-02  1.000001e-06
      vertex   1.491343e+00  4.800000e-02  1.000001e-06
      vertex   2.100001e+00  2.936348e-01  1.000001e-06
    endloop
  endfacet
  facet normal  0.000000e+00  0.000000e+00 -1.000000e+00
    outer loop
      vertex   2.100001e+00  2.936348e-01  1.000001e-06
      vertex   1.491343e+00  4.800000e-02  1.000001e-06
      vertex   1.451343e+00  4.797620e-02  1.000001e-06
    endloop
  endfacet
  facet normal  0.000000e+00  0.000000e+00 -1.000000e+00
    outer loop
      vertex   2.100001e+00  2.936348e-01  1.000001e-06
      vertex   1.451343e+00  4.797620e-02  1.000001e-06
      vertex   7.263265e-01  1.335223e-01  1.000001e-06
    endloop
  endfacet
  facet normal  0.000000e+00  0.000000e+00 -1.000000e+00
    outer loop
      vertex   7.263265e-01  1.335223e-01  1.000001e-06
      vertex   1.451343e+00  4.797620e-02  1.000001e-06
      vertex   7.263265e-01  1.280189e-01  1.000001e-06
    endloop
  endfacet
  facet normal  0.000000e+00 -0.000000e+00 -1.000000e+00
    outer loop
      vertex   7.263265e-01  1.280189e-01  1.000001e-06
      vertex   1.451343e+00  4.797620e-02  1.000001e-06
      vertex   6.452950e-01  9.435912e-02  1.000001e-06
    endloop
  endfacet
  facet normal -0.000000e+00  0.000000e+00 -1.000000e+00
    outer loop
      vertex   7.263265e-01  1.280189e-01  1.000001e-06
      vertex   6.452950e-01  9.435912e-02  1.000001e-06
      vertex   6.797165e-01  1.315326e-01  1.000001e-06
    endloop
  endfacet
  facet normal  0.000000e+00  0.000000e+00 -1.000000e+00
    outer loop
      vertex   1.451343e+00  5.551115e-14  1.000001e-06
      vertex   6.913160e-01  5.551115e-14  1.000001e-06
      vertex   1.451343e+00  4.797620e-02  1.000001e-06
    endloop
  endfacet
  facet normal -0.000000e+00  0.000000e+00 -1.000000e+00
    outer loop
      vertex   1.451343e+00  4.797620e-02  1.000001e-06
      vertex   6.913160e-01  5.551115e-14  1.000001e-06
      vertex   6.452950e-01  9.435912e-02  1.000001e-06
    endloop
  endfacet
  facet normal -7.344526e-12 -4.823970e-11 -1.000000e+00
    outer loop
      vertex   6.548146e-01  1.490687e-01  1.000001e-06
      vertex   6.000258e-01  1.786207e-01  1.000000e-06
      vertex   6.910607e-01  1.435502e-01  1.000001e-06
    endloop
  endfacet
  facet normal  8.224330e-12 -7.826524e-12 -1.000000e+00
    outer loop
      vertex   6.910607e-01  1.435502e-01  1.000001e-06
      vertex   6.000258e-01  1.786207e-01  1.000000e-06
      vertex   6.082943e-01  1.873095e-01  1.000000e-06
    endloop
  endfacet
  facet normal  7.693358e-12 -8.830805e-12 -1.000000e+00
    outer loop
      vertex   6.910607e-01  1.435502e-01  1.000001e-06
      vertex   6.082943e-01  1.873095e-01  1.000000e-06
      vertex   6.920570e-01  2.602832e-01  1.000000e-06
    endloop
  endfacet
  facet normal  0.000000e+00  0.000000e+00 -1.000000e+00
    outer loop
      vertex   6.920570e-01  2.602832e-01  1.000000e-06
      vertex   6.082943e-01  1.873095e-01  1.000000e-06
      vertex   6.039782e-01  1.960692e-01  1.000000e-06
    endloop
  endfacet
  facet normal  0.000000e+00  0.000000e+00 -1.000000e+00
    outer loop
      vertex   6.181624e-01  1.499904e-01  1.000001e-06
      vertex   6.132438e-01  1.557394e-01  1.000001e-06
      vertex   6.548146e-01  1.490687e-01  1.000001e-06
    endloop
  endfacet
  facet normal  0.000000e+00  0.000000e+00 -1.000000e+00
    outer loop
      vertex   6.548146e-01  1.490687e-01  1.000001e-06
      vertex   6.132438e-01  1.557394e-01  1.000001e-06
      vertex   6.070638e-01  1.601043e-01  1.000001e-06
    endloop
  endfacet
  facet normal -1.400045e-11 -6.057967e-11 -1.000000e+00
    outer loop
      vertex   6.548146e-01  1.490687e-01  1.000001e-06
      vertex   6.070638e-01  1.601043e-01  1.000001e-06
      vertex   6.000258e-01  1.786207e-01  1.000000e-06
    endloop
  endfacet
  facet normal -2.485816e-11 -6.470663e-11 -1.000000e+00
    outer loop
      vertex   6.000258e-01  1.786207e-01  1.000000e-06
      vertex   6.070638e-01  1.601043e-01  1.000001e-06
      vertex   6.000010e-01  1.628176e-01  1.000001e-06
    endloop
  endfacet
  facet normal  5.159743e-12 -6.475372e-11 -1.000000e+00
    outer loop
      vertex   6.000258e-01  1.786207e-01  1.000000e-06
      vertex   6.000010e-01  1.628176e-01  1.000001e-06
      vertex   5.893751e-01  1.619709e-01  1.000001e-06
    endloop
  endfacet
  facet normal  4.066708e-12 -6.405452e-11 -1.000000e+00
    outer loop
      vertex   5.893751e-01  1.619709e-01  1.000001e-06
      vertex   5.787069e-01  1.612936e-01  1.000001e-06
      vertex   6.000258e-01  1.786207e-01  1.000000e-06
    endloop
  endfacet
  facet normal  2.999499e-12 -6.274145e-11 -1.000000e+00
    outer loop
      vertex   6.000258e-01  1.786207e-01  1.000000e-06
      vertex   5.787069e-01  1.612936e-01  1.000001e-06
      vertex   5.680810e-01  1.607856e-01  1.000001e-06
    endloop
  endfacet
  facet normal  1.931196e-12 -6.082800e-11 -1.000000e+00
    outer loop
      vertex   6.000258e-01  1.786207e-01  1.000000e-06
      vertex   5.680810e-01  1.607856e-01  1.000001e-06
      vertex   5.574127e-01  1.604469e-01  1.000001e-06
    endloop
  endfacet
  facet normal  9.279445e-13 -5.847561e-11 -1.000000e+00
    outer loop
      vertex   5.574127e-01  1.604469e-01  1.000001e-06
      vertex   5.467445e-01  1.602776e-01  1.000001e-06
      vertex   6.000258e-01  1.786207e-01  1.000000e-06
    endloop
  endfacet
  facet normal -2.950640e-12 -4.720948e-11 -1.000000e+00
    outer loop
      vertex   6.000258e-01  1.786207e-01  1.000000e-06
      vertex   5.467445e-01  1.602776e-01  1.000001e-06
      vertex   5.131612e-01  1.623766e-01  1.000001e-06
    endloop
  endfacet
  facet normal -7.547942e-12 -2.262561e-11 -1.000000e+00
    outer loop
      vertex   6.000258e-01  1.786207e-01  1.000000e-06
      vertex   5.131612e-01  1.623766e-01  1.000001e-06
      vertex   4.970057e-01  1.677661e-01  1.000001e-06
    endloop
  endfacet
  facet normal  0.000000e+00  0.000000e+00 -1.000000e+00
    outer loop
      vertex   4.970057e-01  1.677661e-01  1.000001e-06
      vertex   5.131612e-01  1.623766e-01  1.000001e-06
      vertex   5.019144e-01  1.647088e-01  1.000001e-06
    endloop
  endfacet
  facet normal  0.000000e+00  0.000000e+00 -1.000000e+00
    outer loop
      vertex   5.019144e-01  1.647088e-01  1.000001e-06
      vertex   5.131612e-01  1.623766e-01  1.000001e-06
      vertex   5.074001e-01  1.628788e-01  1.000001e-06
    endloop
  endfacet
  facet normal  0.000000e+00  0.000000e+00 -1.000000e+00
    outer loop
      vertex   5.467445e-01  1.602776e-01  1.000001e-06
      vertex   5.360762e-01  1.602776e-01  1.000001e-06
      vertex   5.131612e-01  1.623766e-01  1.000001e-06
    endloop
  endfacet
  facet normal  0.000000e+00  0.000000e+00 -1.000000e+00
    outer loop
      vertex   5.131612e-01  1.623766e-01  1.000001e-06
      vertex   5.360762e-01  1.602776e-01  1.000001e-06
      vertex   5.254080e-01  1.604469e-01  1.000001e-06
    endloop
  endfacet
  facet normal  0.000000e+00  0.000000e+00 -1.000000e+00
    outer loop
      vertex   5.131612e-01  1.623766e-01  1.000001e-06
      vertex   5.254080e-01  1.604469e-01  1.000001e-06
      vertex   5.147398e-01  1.607856e-01  1.000001e-06
    endloop
  endfacet
  facet normal -8.923286e-12 -9.572340e-12 -1.000000e+00
    outer loop
      vertex   4.970057e-01  1.677661e-01  1.000001e-06
      vertex   4.935800e-01  1.709595e-01  1.000001e-06
      vertex   6.000258e-01  1.786207e-01  1.000000e-06
    endloop
  endfacet
  facet normal -8.495570e-12 -1.551509e-11 -1.000000e+00
    outer loop
      vertex   6.000258e-01  1.786207e-01  1.000000e-06
      vertex   4.935800e-01  1.709595e-01  1.000001e-06
      vertex   4.894722e-01  1.732088e-01  1.000001e-06
    endloop
  endfacet
  facet normal -8.802933e-12 -9.236318e-12 -1.000000e+00
    outer loop
      vertex   6.000258e-01  1.786207e-01  1.000000e-06
      vertex   4.894722e-01  1.732088e-01  1.000001e-06
      vertex   5.913401e-01  1.868988e-01  1.000000e-06
    endloop
  endfacet
  facet normal -6.596112e-12 -2.565734e-11 -1.000000e+00
    outer loop
      vertex   5.913401e-01  1.868988e-01  1.000000e-06
      vertex   4.894722e-01  1.732088e-01  1.000001e-06
      vertex   4.849364e-01  1.743749e-01  1.000001e-06
    endloop
  endfacet
  facet normal -1.220702e-11  2.201320e-11 -1.000000e+00
    outer loop
      vertex   5.913401e-01  1.868988e-01  1.000000e-06
      vertex   4.849364e-01  1.743749e-01  1.000001e-06
      vertex   5.692603e-01  2.211352e-01  1.000001e-06
    endloop
  endfacet
  facet normal  0.000000e+00  0.000000e+00 -1.000000e+00
    outer loop
      vertex   5.692603e-01  2.211352e-01  1.000001e-06
      vertex   4.849364e-01  1.743749e-01  1.000001e-06
      vertex   4.553448e-01  1.743749e-01  1.000001e-06
    endloop
  endfacet
  facet normal  0.000000e+00  0.000000e+00 -1.000000e+00
    outer loop
      vertex   5.692603e-01  2.211352e-01  1.000001e-06
      vertex   4.553448e-01  1.743749e-01  1.000001e-06
      vertex   1.000000e-06  1.480006e-01  1.000001e-06
    endloop
  endfacet
  facet normal  0.000000e+00  0.000000e+00 -1.000000e+00
    outer loop
      vertex   1.000000e-06  1.480006e-01  1.000001e-06
      vertex   4.553448e-01  1.743749e-01  1.000001e-06
      vertex   3.833342e-01  1.599812e-01  1.000001e-06
    endloop
  endfacet
  facet normal  0.000000e+00  0.000000e+00 -1.000000e+00
    outer loop
      vertex   1.000000e-06  1.480006e-01  1.000001e-06
      vertex   3.833342e-01  1.599812e-01  1.000001e-06
      vertex   3.713112e-01  1.480006e-01  1.000001e-06
    endloop
  endfacet
  facet normal  0.000000e+00 -0.000000e+00 -1.000000e+00
    outer loop
      vertex   4.553448e-01  1.743749e-01  1.000001e-06
      vertex   4.553448e-01  1.599812e-01  1.000001e-06
      vertex   3.833342e-01  1.599812e-01  1.000001e-06
    endloop
  endfacet
  facet normal -1.860236e-12 -0.000000e+00 -1.000000e+00
    outer loop
      vertex   1.000000e-06  4.485342e-01  1.000001e-06
      vertex   5.500289e-01  2.997946e-01  1.000000e-06
      vertex   1.000000e-06  1.480006e-01  1.000001e-06
    endloop
  endfacet
  facet normal  4.951966e-12 -2.468411e-11 -1.000000e+00
    outer loop
      vertex   1.000000e-06  1.480006e-01  1.000001e-06
      vertex   5.500289e-01  2.997946e-01  1.000000e-06
      vertex   5.552608e-01  2.593932e-01  1.000001e-06
    endloop
  endfacet
  facet normal  0.000000e+00  0.000000e+00 -1.000000e+00
    outer loop
      vertex   1.000000e-06  1.480006e-01  1.000001e-06
      vertex   5.552608e-01  2.593932e-01  1.000001e-06
      vertex   5.692603e-01  2.211352e-01  1.000001e-06
    endloop
  endfacet
  facet normal -1.747596e-12 -0.000000e+00 -1.000000e+00
    outer loop
      vertex   5.854806e-01  4.485342e-01  1.000000e-06
      vertex   5.854806e-01  4.150805e-01  1.000000e-06
      vertex   1.000000e-06  4.485342e-01  1.000001e-06
    endloop
  endfacet
  facet normal -5.570956e-12 -6.691336e-11 -1.000000e+00
    outer loop
      vertex   1.000000e-06  4.485342e-01  1.000001e-06
      vertex   5.854806e-01  4.150805e-01  1.000000e-06
      vertex   5.687147e-01  4.011852e-01  1.000001e-06
    endloop
  endfacet
  facet normal  0.000000e+00  0.000000e+00 -1.000000e+00
    outer loop
      vertex   1.000000e-06  4.485342e-01  1.000001e-06
      vertex   5.687147e-01  4.011852e-01  1.000001e-06
      vertex   5.555956e-01  3.838052e-01  1.000001e-06
    endloop
  endfacet
  facet normal -0.000000e+00  0.000000e+00 -1.000000e+00
    outer loop
      vertex   5.555956e-01  3.838052e-01  1.000001e-06
      vertex   5.468276e-01  3.638729e-01  1.000001e-06
      vertex   1.000000e-06  4.485342e-01  1.000001e-06
    endloop
  endfacet
  facet normal  0.000000e+00  0.000000e+00 -1.000000e+00
    outer loop
      vertex   1.000000e-06  4.485342e-01  1.000001e-06
      vertex   5.468276e-01  3.638729e-01  1.000001e-06
      vertex   5.428809e-01  3.424580e-01  1.000001e-06
    endloop
  endfacet
  facet normal  0.000000e+00  0.000000e+00 -1.000000e+00
    outer loop
      vertex   1.000000e-06  4.485342e-01  1.000001e-06
      vertex   5.428809e-01  3.424580e-01  1.000001e-06
      vertex   5.439674e-01  3.207096e-01  1.000001e-06
    endloop
  endfacet
  facet normal  1.233587e-11  5.249614e-11 -1.000000e+00
    outer loop
      vertex   5.439674e-01  3.207096e-01  1.000001e-06
      vertex   5.500289e-01  2.997946e-01  1.000000e-06
      vertex   1.000000e-06  4.485342e-01  1.000001e-06
    endloop
  endfacet
endsolid vcg
