solid STL generated by MeshLab
  facet normal -8.531390e-01  5.216836e-01  0.000000e+00
    outer loop
      vertex   7.204710e-01  2.936348e-01  2.000010e-01
      vertex   7.204710e-01  2.936348e-01  1.000001e-06
      vertex   7.127891e-01  2.810721e-01  2.000010e-01
    endloop
  endfacet
  facet normal -8.531390e-01  5.216836e-01  0.000000e+00
    outer loop
      vertex   7.127891e-01  2.810721e-01  2.000010e-01
      vertex   7.204710e-01  2.936348e-01  1.000001e-06
      vertex   7.127891e-01  2.810721e-01  1.000001e-06
    endloop
  endfacet
  facet normal -7.612056e-01  6.485106e-01  0.000000e+00
    outer loop
      vertex   7.127891e-01  2.810721e-01  2.000010e-01
      vertex   7.127891e-01  2.810721e-01  1.000001e-06
      vertex   7.032397e-01  2.698632e-01  1.000001e-06
    endloop
  endfacet
  facet normal -6.505910e-01  7.594283e-01  0.000000e+00
    outer loop
      vertex   6.920570e-01  2.602832e-01  1.000000e-06
      vertex   6.920570e-01  2.602832e-01  2.000010e-01
      vertex   7.032397e-01  2.698632e-01  1.000001e-06
    endloop
  endfacet
  facet normal -6.505910e-01  7.594283e-01  0.000000e+00
    outer loop
      vertex   7.032397e-01  2.698632e-01  1.000001e-06
      vertex   6.920570e-01  2.602832e-01  2.000010e-01
      vertex   7.032397e-01  2.698632e-01  2.000010e-01
    endloop
  endfacet
  facet normal -7.612056e-01  6.485106e-01  0.000000e+00
    outer loop
      vertex   7.032397e-01  2.698632e-01  1.000001e-06
      vertex   7.032397e-01  2.698632e-01  2.000010e-01
      vertex   7.127891e-01  2.810721e-01  2.000010e-01
    endloop
  endfacet
  facet normal  1.000000e+00 -0.000000e+00  0.000000e+00
    outer loop
      vertex   5.854806e-01  4.150805e-01  1.000000e-06
      vertex   5.854806e-01  4.485342e-01  1.000000e-06
      vertex   5.854806e-01  4.150805e-01  2.000010e-01
    endloop
  endfacet
  facet normal  1.000000e+00 -0.000000e+00  0.000000e+00
    outer loop
      vertex   5.854806e-01  4.150805e-01  2.000010e-01
      vertex   5.854806e-01  4.485342e-01  1.000000e-06
      vertex   5.854806e-01  4.485342e-01  2.000010e-01
    endloop
  endfacet
  facet normal -5.891114e-01  8.080518e-01  0.000000e+00
    outer loop
      vertex   6.920570e-01  2.602832e-01  1.000000e-06
      vertex   6.039782e-01  1.960692e-01  1.000000e-06
      vertex   6.920570e-01  2.602832e-01  2.000010e-01
    endloop
  endfacet
  facet normal -5.891114e-01  8.080518e-01  0.000000e+00
    outer loop
      vertex   6.920570e-01  2.602832e-01  2.000010e-01
      vertex   6.039782e-01  1.960692e-01  1.000000e-06
      vertex   6.039782e-01  1.960692e-01  2.000010e-01
    endloop
  endfacet
  facet normal -8.970237e-01 -4.419824e-01  0.000000e+00
    outer loop
      vertex   6.039782e-01  1.960692e-01  1.000000e-06
      vertex   6.082943e-01  1.873095e-01  1.000000e-06
      vertex   6.039782e-01  1.960692e-01  2.000010e-01
    endloop
  endfacet
  facet normal -8.970237e-01 -4.419824e-01  0.000000e+00
    outer loop
      vertex   6.039782e-01  1.960692e-01  2.000010e-01
      vertex   6.082943e-01  1.873095e-01  1.000000e-06
      vertex   6.082943e-01  1.873095e-01  2.000010e-01
    endloop
  endfacet
  facet normal -7.244117e-01  6.893677e-01  0.000000e+00
    outer loop
      vertex   6.082943e-01  1.873095e-01  1.000000e-06
      vertex   6.000258e-01  1.786207e-01  1.000000e-06
      vertex   6.082943e-01  1.873095e-01  2.000010e-01
    endloop
  endfacet
  facet normal -7.244117e-01  6.893677e-01  0.000000e+00
    outer loop
      vertex   6.082943e-01  1.873095e-01  2.000010e-01
      vertex   6.000258e-01  1.786207e-01  1.000000e-06
      vertex   6.000258e-01  1.786207e-01  2.000010e-01
    endloop
  endfacet
  facet normal  6.899198e-01  7.238858e-01 -0.000000e+00
    outer loop
      vertex   6.000258e-01  1.786207e-01  1.000000e-06
      vertex   5.913401e-01  1.868988e-01  1.000000e-06
      vertex   6.000258e-01  1.786207e-01  2.000010e-01
    endloop
  endfacet
  facet normal  6.899198e-01  7.238858e-01  0.000000e+00
    outer loop
      vertex   6.000258e-01  1.786207e-01  2.000010e-01
      vertex   5.913401e-01  1.868988e-01  1.000000e-06
      vertex   5.913401e-01  1.868988e-01  2.000010e-01
    endloop
  endfacet
  facet normal  8.403884e-01  5.419845e-01  0.000000e+00
    outer loop
      vertex   5.913401e-01  1.868988e-01  2.000010e-01
      vertex   5.913401e-01  1.868988e-01  1.000000e-06
      vertex   5.692603e-01  2.211352e-01  2.000010e-01
    endloop
  endfacet
  facet normal  8.403884e-01  5.419845e-01  0.000000e+00
    outer loop
      vertex   5.692603e-01  2.211352e-01  2.000010e-01
      vertex   5.913401e-01  1.868988e-01  1.000000e-06
      vertex   5.692603e-01  2.211352e-01  1.000001e-06
    endloop
  endfacet
  facet normal  9.391019e-01  3.436390e-01  0.000000e+00
    outer loop
      vertex   5.692603e-01  2.211352e-01  2.000010e-01
      vertex   5.692603e-01  2.211352e-01  1.000001e-06
      vertex   5.552608e-01  2.593932e-01  2.000010e-01
    endloop
  endfacet
  facet normal  9.391019e-01  3.436390e-01  0.000000e+00
    outer loop
      vertex   5.552608e-01  2.593932e-01  2.000010e-01
      vertex   5.692603e-01  2.211352e-01  1.000001e-06
      vertex   5.552608e-01  2.593932e-01  1.000001e-06
    endloop
  endfacet
  facet normal  9.917189e-01  1.284272e-01  0.000000e+00
    outer loop
      vertex   5.552608e-01  2.593932e-01  2.000010e-01
      vertex   5.552608e-01  2.593932e-01  1.000001e-06
      vertex   5.500289e-01  2.997946e-01  2.000010e-01
    endloop
  endfacet
  facet normal  9.917189e-01  1.284272e-01  0.000000e+00
    outer loop
      vertex   5.500289e-01  2.997946e-01  2.000010e-01
      vertex   5.552608e-01  2.593932e-01  1.000001e-06
      vertex   5.500289e-01  2.997946e-01  1.000000e-06
    endloop
  endfacet
  facet normal  9.604769e-01  2.783597e-01  0.000000e+00
    outer loop
      vertex   5.500289e-01  2.997946e-01  2.000010e-01
      vertex   5.500289e-01  2.997946e-01  1.000000e-06
      vertex   5.439674e-01  3.207096e-01  2.000010e-01
    endloop
  endfacet
  facet normal  9.604769e-01  2.783597e-01  0.000000e+00
    outer loop
      vertex   5.439674e-01  3.207096e-01  2.000010e-01
      vertex   5.500289e-01  2.997946e-01  1.000000e-06
      vertex   5.439674e-01  3.207096e-01  1.000001e-06
    endloop
  endfacet
  facet normal  9.987543e-01  4.989686e-02  0.000000e+00
    outer loop
      vertex   5.439674e-01  3.207096e-01  2.000010e-01
      vertex   5.439674e-01  3.207096e-01  1.000001e-06
      vertex   5.428809e-01  3.424580e-01  2.000010e-01
    endloop
  endfacet
  facet normal  9.987543e-01  4.989686e-02  0.000000e+00
    outer loop
      vertex   5.428809e-01  3.424580e-01  2.000010e-01
      vertex   5.439674e-01  3.207096e-01  1.000001e-06
      vertex   5.428809e-01  3.424580e-01  1.000001e-06
    endloop
  endfacet
  facet normal  9.834384e-01 -1.812429e-01  0.000000e+00
    outer loop
      vertex   5.428809e-01  3.424580e-01  2.000010e-01
      vertex   5.428809e-01  3.424580e-01  1.000001e-06
      vertex   5.468276e-01  3.638729e-01  2.000010e-01
    endloop
  endfacet
  facet normal  9.834384e-01 -1.812429e-01  0.000000e+00
    outer loop
      vertex   5.468276e-01  3.638729e-01  2.000010e-01
      vertex   5.428809e-01  3.424580e-01  1.000001e-06
      vertex   5.468276e-01  3.638729e-01  1.000001e-06
    endloop
  endfacet
  facet normal  9.153509e-01 -4.026572e-01  0.000000e+00
    outer loop
      vertex   5.468276e-01  3.638729e-01  2.000010e-01
      vertex   5.468276e-01  3.638729e-01  1.000001e-06
      vertex   5.555956e-01  3.838052e-01  2.000010e-01
    endloop
  endfacet
  facet normal  9.153509e-01 -4.026572e-01  0.000000e+00
    outer loop
      vertex   5.555956e-01  3.838052e-01  2.000010e-01
      vertex   5.468276e-01  3.638729e-01  1.000001e-06
      vertex   5.555956e-01  3.838052e-01  1.000001e-06
    endloop
  endfacet
  facet normal  7.981446e-01 -6.024659e-01  0.000000e+00
    outer loop
      vertex   5.555956e-01  3.838052e-01  2.000010e-01
      vertex   5.555956e-01  3.838052e-01  1.000001e-06
      vertex   5.687147e-01  4.011852e-01  2.000010e-01
    endloop
  endfacet
  facet normal  7.981446e-01 -6.024659e-01  0.000000e+00
    outer loop
      vertex   5.687147e-01  4.011852e-01  2.000010e-01
      vertex   5.555956e-01  3.838052e-01  1.000001e-06
      vertex   5.687147e-01  4.011852e-01  1.000001e-06
    endloop
  endfacet
  facet normal  6.381119e-01 -7.699436e-01  0.000000e+00
    outer loop
      vertex   5.687147e-01  4.011852e-01  2.000010e-01
      vertex   5.687147e-01  4.011852e-01  1.000001e-06
      vertex   5.854806e-01  4.150805e-01  2.000010e-01
    endloop
  endfacet
  facet normal  6.381119e-01 -7.699436e-01  0.000000e+00
    outer loop
      vertex   5.854806e-01  4.150805e-01  2.000010e-01
      vertex   5.687147e-01  4.011852e-01  1.000001e-06
      vertex   5.854806e-01  4.150805e-01  1.000000e-06
    endloop
  endfacet
endsolid vcg
