solid STL generated by MeshLab
  facet normal -1.000000e+00  0.000000e+00  0.000000e+00
    outer loop
      vertex   1.000000e-06  1.480006e-01  2.000010e-01
      vertex   1.000000e-06  4.485342e-01  2.000010e-01
      vertex   1.000000e-06  1.480006e-01  1.000001e-06
    endloop
  endfacet
  facet normal -1.000000e+00  0.000000e+00  0.000000e+00
    outer loop
      vertex   1.000000e-06  1.480006e-01  1.000001e-06
      vertex   1.000000e-06  4.485342e-01  2.000010e-01
      vertex   1.000000e-06  4.485342e-01  1.000001e-06
    endloop
  endfacet
endsolid vcg
