v 0.900016 0.5 0.648002
v 2.26004 0.5 0.648002
l 1 2
v 0.900016 0.5 0.367949
v 0.900016 0.5 0.648002
l 3 4
v 0.900016 0.5 0.648002
v 2.26004 0.5 0.648002
l 5 6
v 2.26004 0.5 0.648002
v 2.26004 0.5 0.0479772
l 7 8
v 2.26004 0.5 0.0479772
v 1.62004 0.5 0.0479772
l 9 10
v 1.62004 0.5 0.0479772
v 1.62004 0.5 1e-06
l 11 12
v 0.895021 0.5 0.133523
v 0.859755 0.5 0.143551
l 13 14
v 0.895021 0.5 0.12802
v 0.895021 0.5 0.133523
l 15 16
v 0.723652 0.5 0.228648
v 0.734151 0.5 0.234448
l 17 18
v 0.734151 0.5 0.234448
v 0.732669 0.5 0.2441
l 19 20
v 0.823509 0.5 0.14907
v 0.786857 0.5 0.149991
l 21 22
v 0.786857 0.5 0.149991
v 0.781938 0.5 0.15574
l 23 24
v 2.26004 0.5 0.648002
v 2.26004 0.5 0.0479772
l 25 26
v 2.26004 0.5 0.0479772
v 1.62004 0.5 0.0479772
l 27 28
v 1.62004 0.5 1e-06
v 0.860011 0.5 1e-06
l 29 30
v 1.62004 0.5 0.0479772
v 1.62004 0.5 1e-06
l 31 32
v 1.62004 0.5 1e-06
v 0.860011 0.5 1e-06
l 33 34
v 0.860011 0.5 1e-06
v 0.81399 0.5 0.0943601
l 35 36
v 0.895021 0.5 0.12802
v 0.895021 0.5 0.133523
l 37 38
v 0.848411 0.5 0.131534
v 0.895021 0.5 0.12802
l 39 40
v 0.860011 0.5 1e-06
v 0.81399 0.5 0.0943601
l 41 42
v 0.81399 0.5 0.0943601
v 0.848411 0.5 0.131534
l 43 44
v 0.81399 0.5 0.0943601
v 0.848411 0.5 0.131534
l 45 46
v 0.848411 0.5 0.131534
v 0.895021 0.5 0.12802
l 47 48
v 0.723652 0.5 0.228648
v 0.734151 0.5 0.234448
l 49 50
v 0.717858 0.5 0.239156
v 0.723652 0.5 0.228648
l 51 52
v 0.681856 0.5 0.162378
v 0.676095 0.5 0.16288
l 53 54
v 0.683434 0.5 0.160787
v 0.681856 0.5 0.162378
l 55 56
v 0.694103 0.5 0.160448
v 0.683434 0.5 0.160787
l 57 58
v 0.683434 0.5 0.160787
v 0.681856 0.5 0.162378
l 59 60
v 0.653631 0.5 0.174376
v 0.624039 0.5 0.174376
l 61 62
v 0.624039 0.5 0.174376
v 0.624039 0.5 0.159982
l 63 64
v 0.624039 0.5 0.159982
v 0.552029 0.5 0.159982
l 65 66
v 0.552029 0.5 0.159982
v 0.540006 0.5 0.148002
l 67 68
v 0.2 0.5 0.148002
v 0.2 0.5 0.648002
l 69 70
v 0.540006 0.5 0.148002
v 0.2 0.5 0.148002
l 71 72
v 0.2 0.5 0.148002
v 0.2 0.5 0.648002
l 73 74
v 0.2 0.5 0.648002
v 0.754175 0.5 0.648002
l 75 76
v 0.754175 0.5 0.446368
v 0.738581 0.5 0.433444
l 77 78
v 0.754175 0.5 0.648002
v 0.754175 0.5 0.446368
l 79 80
v 0.2 0.5 0.648002
v 0.754175 0.5 0.648002
l 81 82
v 0.754175 0.5 0.648002
v 0.754175 0.5 0.446368
l 83 84
v 0.624039 0.5 0.174376
v 0.624039 0.5 0.159982
l 85 86
v 0.624039 0.5 0.159982
v 0.552029 0.5 0.159982
l 87 88
v 0.552029 0.5 0.159982
v 0.540006 0.5 0.148002
l 89 90
v 0.540006 0.5 0.148002
v 0.2 0.5 0.148002
l 91 92
v 0.734151 0.5 0.234448
v 0.732669 0.5 0.2441
l 93 94
v 0.732669 0.5 0.2441
v 0.835761 0.5 0.278777
l 95 96
v 1.62004 0.3 1e-06
v 1.62004 0.3 0.0479772
l 97 98
v 0.860011 0.3 1e-06
v 1.62004 0.3 1e-06
l 99 100
v 1.62004 0.3 1e-06
v 1.62004 0.3 0.0479772
l 101 102
v 1.62004 0.3 0.0479772
v 2.26004 0.3 0.0479772
l 103 104
v 0.860011 0.3 1e-06
v 1.62004 0.3 1e-06
l 105 106
v 0.81399 0.3 0.0943601
v 0.860011 0.3 1e-06
l 107 108
v 0.895021 0.3 0.12802
v 0.848411 0.3 0.131534
l 109 110
v 0.895021 0.3 0.133523
v 0.895021 0.3 0.12802
l 111 112
v 0.81399 0.3 0.0943601
v 0.860011 0.3 1e-06
l 113 114
v 0.848411 0.3 0.131534
v 0.81399 0.3 0.0943601
l 115 116
v 0.895021 0.3 0.12802
v 0.848411 0.3 0.131534
l 117 118
v 0.848411 0.3 0.131534
v 0.81399 0.3 0.0943601
l 119 120
v 2.26004 0.3 0.0479772
v 2.26004 0.3 0.648002
l 121 122
v 1.62004 0.3 0.0479772
v 2.26004 0.3 0.0479772
l 123 124
v 2.26004 0.3 0.0479772
v 2.26004 0.3 0.648002
l 125 126
v 2.26004 0.3 0.648002
v 0.900016 0.3 0.648002
l 127 128
v 2.26004 0.3 0.648002
v 0.900016 0.3 0.648002
l 129 130
v 0.900016 0.3 0.648002
v 0.900016 0.3 0.367949
l 131 132
v 0.859755 0.3 0.143551
v 0.895021 0.3 0.133523
l 133 134
v 0.895021 0.3 0.133523
v 0.895021 0.3 0.12802
l 135 136
v 0.732669 0.3 0.2441
v 0.734151 0.3 0.234448
l 137 138
v 0.734151 0.3 0.234448
v 0.723652 0.3 0.228648
l 139 140
v 0.835761 0.3 0.278777
v 0.732669 0.3 0.2441
l 141 142
v 0.732669 0.3 0.2441
v 0.734151 0.3 0.234448
l 143 144
v 0.734151 0.3 0.234448
v 0.723652 0.3 0.228648
l 145 146
v 0.723652 0.3 0.228648
v 0.717858 0.3 0.239156
l 147 148
v 0.676095 0.3 0.16288
v 0.681856 0.3 0.162378
l 149 150
v 0.681856 0.3 0.162378
v 0.683434 0.3 0.160787
l 151 152
v 0.624039 0.3 0.174376
v 0.653631 0.3 0.174376
l 153 154
v 0.624039 0.3 0.159982
v 0.624039 0.3 0.174376
l 155 156
v 0.540006 0.3 0.148002
v 0.552029 0.3 0.159982
l 157 158
v 0.552029 0.3 0.159982
v 0.624039 0.3 0.159982
l 159 160
v 0.2 0.3 0.648002
v 0.2 0.3 0.148002
l 161 162
v 0.2 0.3 0.148002
v 0.540006 0.3 0.148002
l 163 164
v 0.2 0.3 0.648002
v 0.2 0.3 0.148002
l 165 166
v 0.754175 0.3 0.648002
v 0.2 0.3 0.648002
l 167 168
v 0.738581 0.3 0.433444
v 0.754175 0.3 0.446368
l 169 170
v 0.754175 0.3 0.446368
v 0.754175 0.3 0.648002
l 171 172
v 0.754175 0.3 0.446368
v 0.754175 0.3 0.648002
l 173 174
v 0.754175 0.3 0.648002
v 0.2 0.3 0.648002
l 175 176
v 0.2 0.3 0.148002
v 0.540006 0.3 0.148002
l 177 178
v 0.540006 0.3 0.148002
v 0.552029 0.3 0.159982
l 179 180
v 0.552029 0.3 0.159982
v 0.624039 0.3 0.159982
l 181 182
v 0.624039 0.3 0.159982
v 0.624039 0.3 0.174376
l 183 184
v 0.683434 0.3 0.160787
v 0.694103 0.3 0.160448
l 185 186
v 0.681856 0.3 0.162378
v 0.683434 0.3 0.160787
l 187 188
v 0.781938 0.3 0.15574
v 0.786857 0.3 0.149991
l 189 190
v 0.786857 0.3 0.149991
v 0.823509 0.3 0.14907
l 191 192
