# Wavefront OBJ file written 2025-11-26T15:06:43
o defaultFaces_edgeMesh

# points : 112
# lines  : 112

# <points count="112">
v 0.900016 0.5 0.648002
v 2.26004 0.5 0.648002
v 1.62004 0.5 0.0479772
v 0.895021 0.5 0.133523
v 0.734151 0.5 0.234448
v 0.786857 0.5 0.149991
v 2.26004 0.5 0.0479772
v 1.62004 0.5 1e-06
v 0.860011 0.5 1e-06
v 0.895021 0.5 0.12802
v 0.81399 0.5 0.0943601
v 0.848411 0.5 0.131534
v 0.723652 0.5 0.228648
v 0.681856 0.5 0.162378
v 0.683434 0.5 0.160787
v 0.624039 0.5 0.174376
v 0.552029 0.5 0.159982
v 0.2 0.5 0.148002
v 0.2 0.5 0.648002
v 0.754175 0.5 0.446368
v 0.754175 0.5 0.648002
v 0.624039 0.5 0.159982
v 0.540006 0.5 0.148002
v 0.732669 0.5 0.2441
v 1.62004 0.3 1e-06
v 1.62004 0.3 0.0479772
v 0.860011 0.3 1e-06
v 0.895021 0.3 0.12802
v 0.81399 0.3 0.0943601
v 0.848411 0.3 0.131534
v 2.26004 0.3 0.0479772
v 2.26004 0.3 0.648002
v 0.900016 0.3 0.648002
v 0.895021 0.3 0.133523
v 0.734151 0.3 0.234448
v 0.732669 0.3 0.2441
v 0.723652 0.3 0.228648
v 0.681856 0.3 0.162378
v 0.624039 0.3 0.174376
v 0.552029 0.3 0.159982
v 0.2 0.3 0.148002
v 0.2 0.3 0.648002
v 0.754175 0.3 0.446368
v 0.754175 0.3 0.648002
v 0.540006 0.3 0.148002
v 0.624039 0.3 0.159982
v 0.683434 0.3 0.160787
v 0.786857 0.3 0.149991
v 0.900016 0.5 0.367949
v 0.8971 0.5 0.344714
v 0.88853 0.5 0.322921
v 0.87484 0.5 0.303923
v 0.856879 0.5 0.288897
v 0.835761 0.5 0.278777
v 0.859755 0.5 0.143551
v 0.823509 0.5 0.14907
v 0.775758 0.5 0.160105
v 0.768696 0.5 0.162819
v 0.781938 0.5 0.15574
v 0.75807 0.5 0.161972
v 0.747401 0.5 0.161295
v 0.736776 0.5 0.160787
v 0.662275 0.5 0.170961
v 0.658167 0.5 0.17321
v 0.726107 0.5 0.160448
v 0.715439 0.5 0.160279
v 0.704771 0.5 0.160279
v 0.6657 0.5 0.167767
v 0.670609 0.5 0.16471
v 0.676095 0.5 0.16288
v 0.694103 0.5 0.160448
v 0.653631 0.5 0.174376
v 0.717858 0.5 0.239156
v 0.707097 0.5 0.278448
v 0.705252 0.5 0.319144
v 0.712413 0.5 0.359249
v 0.712722 0.5 0.3795
v 0.717362 0.5 0.399215
v 0.726117 0.5 0.417479
v 0.738581 0.5 0.433444
v 0.900016 0.3 0.367949
v 0.8971 0.3 0.344714
v 0.88853 0.3 0.322921
v 0.87484 0.3 0.303923
v 0.856879 0.3 0.288897
v 0.835761 0.3 0.278777
v 0.859755 0.3 0.143551
v 0.823509 0.3 0.14907
v 0.768696 0.3 0.162819
v 0.775758 0.3 0.160105
v 0.75807 0.3 0.161972
v 0.747401 0.3 0.161295
v 0.736776 0.3 0.160787
v 0.658167 0.3 0.17321
v 0.662275 0.3 0.170961
v 0.726107 0.3 0.160448
v 0.715439 0.3 0.160279
v 0.704771 0.3 0.160279
v 0.6657 0.3 0.167767
v 0.670609 0.3 0.16471
v 0.676095 0.3 0.16288
v 0.717858 0.3 0.239156
v 0.653631 0.3 0.174376
v 0.707097 0.3 0.278448
v 0.705252 0.3 0.319144
v 0.712413 0.3 0.359249
v 0.712722 0.3 0.3795
v 0.717362 0.3 0.399215
v 0.726117 0.3 0.417479
v 0.738581 0.3 0.433444
v 0.694103 0.3 0.160448
v 0.781938 0.3 0.15574
# </points>

# <edges count="112">
l 1 2
l 49 1
l 50 49
l 51 50
l 52 51
l 53 52
l 54 53
l 4 55
l 55 56
l 57 58
l 59 57
l 56 6
l 6 59
l 2 7
l 7 3
l 8 9
l 3 8
l 10 4
l 9 11
l 11 12
l 12 10
l 58 60
l 13 5
l 60 61
l 61 62
l 63 64
l 62 65
l 65 66
l 66 67
l 68 63
l 69 68
l 14 70
l 70 69
l 67 71
l 71 15
l 15 14
l 64 72
l 72 16
l 73 13
l 74 73
l 75 74
l 76 75
l 77 76
l 18 19
l 78 77
l 79 78
l 80 79
l 20 80
l 19 21
l 21 20
l 16 22
l 22 17
l 17 23
l 23 18
l 5 24
l 24 54
l 25 26
l 27 25
l 29 27
l 28 30
l 30 29
l 31 32
l 26 31
l 81 82
l 32 33
l 33 81
l 82 83
l 83 84
l 84 85
l 85 86
l 87 34
l 88 87
l 89 90
l 86 36
l 36 35
l 35 37
l 91 89
l 92 91
l 93 92
l 94 95
l 96 93
l 97 96
l 98 97
l 95 99
l 99 100
l 100 101
l 101 38
l 37 102
l 39 103
l 103 94
l 102 104
l 104 105
l 105 106
l 106 107
l 42 41
l 107 108
l 108 109
l 109 110
l 110 43
l 43 44
l 44 42
l 41 45
l 45 40
l 40 46
l 46 39
l 47 111
l 38 47
l 111 98
l 90 112
l 112 48
l 48 88
l 34 28
# </edges>
