# Wavefront OBJ file written 2025-11-26T15:06:43
o gate_edgeMesh

# points : 40
# lines  : 44

# <points count="40">
v 0.900016 0.5 0.648002
v 0.900016 0.3 0.648002
v 0.754175 0.5 0.648002
v 0.754175 0.3 0.648002
v 0.754175 0.5 0.446368
v 0.754175 0.3 0.446368
v 0.723652 0.3 0.228648
v 0.734151 0.3 0.234448
v 0.723652 0.5 0.228648
v 0.734151 0.5 0.234448
v 0.732669 0.5 0.2441
v 0.732669 0.3 0.2441
v 0.8971 0.3 0.344714
v 0.900016 0.3 0.367949
v 0.900016 0.5 0.367949
v 0.8971 0.5 0.344714
v 0.88853 0.3 0.322921
v 0.88853 0.5 0.322921
v 0.87484 0.3 0.303923
v 0.87484 0.5 0.303923
v 0.856879 0.3 0.288897
v 0.856879 0.5 0.288897
v 0.835761 0.3 0.278777
v 0.835761 0.5 0.278777
v 0.738581 0.5 0.433444
v 0.738581 0.3 0.433444
v 0.726117 0.5 0.417479
v 0.726117 0.3 0.417479
v 0.717362 0.5 0.399215
v 0.717362 0.3 0.399215
v 0.712722 0.5 0.3795
v 0.712722 0.3 0.3795
v 0.712413 0.5 0.359249
v 0.712413 0.3 0.359249
v 0.717858 0.3 0.239156
v 0.717858 0.5 0.239156
v 0.705252 0.5 0.319144
v 0.705252 0.3 0.319144
v 0.707097 0.5 0.278448
v 0.707097 0.3 0.278448
# </points>

# <edges count="44">
l 6 5
l 11 12
l 9 7
l 8 10
l 13 14
l 15 16
l 17 13
l 16 18
l 19 17
l 18 20
l 21 19
l 20 22
l 23 21
l 22 24
l 1 15
l 14 2
l 2 1
l 3 4
l 5 3
l 4 6
l 25 5
l 6 26
l 27 25
l 26 28
l 29 27
l 28 30
l 31 29
l 30 32
l 33 31
l 32 34
l 7 8
l 10 9
l 35 7
l 9 36
l 37 33
l 34 38
l 39 37
l 38 40
l 36 39
l 40 35
l 24 11
l 12 23
l 8 12
l 11 10
# </edges>
