v 0.768696 0.3 0.162819
v 0.75807 0.3 0.161972
l 1 2
v 0.75807 0.5 0.161972
v 0.768696 0.5 0.162819
l 3 4
v 0.781938 0.5 0.15574
v 0.786857 0.5 0.149991
l 5 6
v 0.786857 0.3 0.149991
v 0.781938 0.3 0.15574
l 7 8
v 0.775758 0.5 0.160105
v 0.781938 0.5 0.15574
l 9 10
v 0.781938 0.3 0.15574
v 0.775758 0.3 0.160105
l 11 12
v 0.768696 0.5 0.162819
v 0.775758 0.5 0.160105
l 13 14
v 0.775758 0.3 0.160105
v 0.768696 0.3 0.162819
l 15 16
v 0.860011 0.3 1e-06
v 0.81399 0.3 0.0943601
l 17 18
v 0.81399 0.5 0.0943601
v 0.860011 0.5 1e-06
l 19 20
v 0.859755 0.5 0.143551
v 0.895021 0.5 0.133523
l 21 22
v 0.895021 0.3 0.133523
v 0.859755 0.3 0.143551
l 23 24
v 0.859755 0.3 0.143551
v 0.823509 0.3 0.14907
l 25 26
v 0.823509 0.3 0.14907
v 0.786857 0.3 0.149991
l 27 28
v 0.786857 0.5 0.149991
v 0.823509 0.5 0.14907
l 29 30
v 0.823509 0.5 0.14907
v 0.859755 0.5 0.143551
l 31 32
v 0.81399 0.3 0.0943601
v 0.848411 0.3 0.131534
l 33 34
v 0.848411 0.5 0.131534
v 0.81399 0.5 0.0943601
l 35 36
v 0.848411 0.3 0.131534
v 0.895021 0.3 0.12802
l 37 38
v 0.895021 0.5 0.12802
v 0.848411 0.5 0.131534
l 39 40
v 0.895021 0.3 0.12802
v 0.895021 0.3 0.133523
l 41 42
v 0.895021 0.5 0.133523
v 0.895021 0.5 0.12802
l 43 44
v 1.62004 0.3 0.0479772
v 1.62004 0.3 1e-06
l 45 46
v 1.62004 0.5 1e-06
v 1.62004 0.5 0.0479772
l 47 48
v 0.860011 0.5 1e-06
v 1.62004 0.5 1e-06
l 49 50
v 1.62004 0.3 1e-06
v 0.860011 0.3 1e-06
l 51 52
v 1.62004 0.5 0.0479772
v 2.26004 0.5 0.0479772
l 53 54
v 2.26004 0.5 0.0479772
v 2.26004 0.3 0.0479772
l 55 56
v 2.26004 0.3 0.0479772
v 1.62004 0.3 0.0479772
l 57 58
v 0.75807 0.3 0.161972
v 0.747401 0.3 0.161295
l 59 60
v 0.747401 0.5 0.161295
v 0.75807 0.5 0.161972
l 61 62
v 0.540006 0.3 0.148002
v 0.2 0.3 0.148002
l 63 64
v 0.2 0.3 0.148002
v 0.2 0.5 0.148002
l 65 66
v 0.2 0.5 0.148002
v 0.540006 0.5 0.148002
l 67 68
v 0.540006 0.5 0.148002
v 0.552029 0.5 0.159982
l 69 70
v 0.552029 0.3 0.159982
v 0.540006 0.3 0.148002
l 71 72
v 0.624039 0.5 0.159982
v 0.624039 0.5 0.174376
l 73 74
v 0.624039 0.3 0.174376
v 0.624039 0.3 0.159982
l 75 76
v 0.624039 0.3 0.159982
v 0.552029 0.3 0.159982
l 77 78
v 0.552029 0.5 0.159982
v 0.624039 0.5 0.159982
l 79 80
v 0.653631 0.3 0.174376
v 0.624039 0.3 0.174376
l 81 82
v 0.624039 0.5 0.174376
v 0.653631 0.5 0.174376
l 83 84
v 0.683434 0.3 0.160787
v 0.681856 0.3 0.162378
l 85 86
v 0.681856 0.5 0.162378
v 0.683434 0.5 0.160787
l 87 88
v 0.676095 0.5 0.16288
v 0.681856 0.5 0.162378
l 89 90
v 0.681856 0.3 0.162378
v 0.676095 0.3 0.16288
l 91 92
v 0.670609 0.5 0.16471
v 0.676095 0.5 0.16288
l 93 94
v 0.676095 0.3 0.16288
v 0.670609 0.3 0.16471
l 95 96
v 0.6657 0.5 0.167767
v 0.670609 0.5 0.16471
l 97 98
v 0.670609 0.3 0.16471
v 0.6657 0.3 0.167767
l 99 100
v 0.662275 0.5 0.170961
v 0.6657 0.5 0.167767
l 101 102
v 0.6657 0.3 0.167767
v 0.662275 0.3 0.170961
l 103 104
v 0.658167 0.5 0.17321
v 0.662275 0.5 0.170961
l 105 106
v 0.662275 0.3 0.170961
v 0.658167 0.3 0.17321
l 107 108
v 0.653631 0.5 0.174376
v 0.658167 0.5 0.17321
l 109 110
v 0.658167 0.3 0.17321
v 0.653631 0.3 0.174376
l 111 112
v 0.747401 0.3 0.161295
v 0.736776 0.3 0.160787
l 113 114
v 0.736776 0.5 0.160787
v 0.747401 0.5 0.161295
l 115 116
v 0.736776 0.3 0.160787
v 0.726107 0.3 0.160448
l 117 118
v 0.726107 0.5 0.160448
v 0.736776 0.5 0.160787
l 119 120
v 0.726107 0.3 0.160448
v 0.715439 0.3 0.160279
l 121 122
v 0.715439 0.5 0.160279
v 0.726107 0.5 0.160448
l 123 124
v 0.715439 0.3 0.160279
v 0.704771 0.3 0.160279
l 125 126
v 0.704771 0.5 0.160279
v 0.715439 0.5 0.160279
l 127 128
v 0.704771 0.3 0.160279
v 0.694103 0.3 0.160448
l 129 130
v 0.694103 0.5 0.160448
v 0.704771 0.5 0.160279
l 131 132
v 0.694103 0.3 0.160448
v 0.683434 0.3 0.160787
l 133 134
v 0.683434 0.5 0.160787
v 0.694103 0.5 0.160448
l 135 136
