v 0.786857 0.5 0.149991
v 0.786857 -0.5 0.149991
l 1 2
v 0.81399 0.3 0.0943601
v 0.81399 1.3 0.0943601
l 3 4
v 0.860011 0.5 1e-06
v 0.860011 -0.5 1e-06
l 5 6
v 0.848411 0.3 0.131534
v 0.848411 1.3 0.131534
l 7 8
v 1.62004 0.3 1e-06
v 1.62004 1.3 1e-06
l 9 10
v 0.540006 0.5 0.148002
v 0.540006 -0.5 0.148002
l 11 12
v 0.624039 0.3 0.159982
v 0.624039 1.3 0.159982
l 13 14
v 0.683434 0.5 0.160787
v 0.683434 -0.5 0.160787
l 15 16
v 0.895021 0.5 0.133523
v 0.895021 -0.5 0.133523
l 17 18
v 0.895021 0.3 0.12802
v 0.895021 1.3 0.12802
l 19 20
v 1.62004 0.5 0.0479772
v 1.62004 -0.5 0.0479772
l 21 22
v 0.552029 0.5 0.159982
v 0.552029 -0.5 0.159982
l 23 24
v 0.624039 0.5 0.174376
v 0.624039 -0.5 0.174376
l 25 26
v 0.681856 0.3 0.162378
v 0.681856 1.3 0.162378
l 27 28
v 0.768696 0.3 0.162819
v -0.228145 0.3 0.0833878
l 29 30
v 0.75807 0.5 0.161972
v 1.75491 0.5 0.241403
l 31 32
v 0.781938 0.5 0.15574
v 1.43204 0.5 -0.604106
l 33 34
v 0.786857 0.3 0.149991
v 0.136755 0.3 0.909838
l 35 36
v 0.775758 0.5 0.160105
v 1.59257 0.5 -0.416804
l 37 38
v 0.781938 0.3 0.15574
v -0.0348699 0.3 0.73265
l 39 40
v 0.768696 0.5 0.162819
v 1.70218 0.5 -0.195801
l 41 42
v 0.775758 0.3 0.160105
v -0.157725 0.3 0.518725
l 43 44
v 0.860011 0.3 1e-06
v 0.421647 0.3 0.898798
l 45 46
v 0.81399 0.5 0.0943601
v 1.25235 0.5 -0.804437
l 47 48
v 0.859755 0.5 0.143551
v 1.82162 0.5 -0.129958
l 49 50
v 0.895021 0.3 0.133523
v -0.0668482 0.3 0.407033
l 51 52
v 0.859755 0.3 0.143551
v -0.128852 0.3 0.294068
l 53 54
v 0.823509 0.3 0.14907
v -0.176175 0.3 0.174206
l 55 56
v 0.786857 0.5 0.149991
v 1.78654 0.5 0.124855
l 57 58
v 0.823509 0.5 0.14907
v 1.81212 0.5 -0.00144694
l 59 60
v 0.81399 0.3 0.0943601
v 1.49341 0.3 0.828105
l 61 62
v 0.848411 0.5 0.131534
v 0.168986 0.5 -0.602211
l 63 64
v 0.848411 0.3 0.131534
v 1.84558 0.3 0.0563619
l 65 66
v 0.895021 0.5 0.12802
v -0.10215 0.5 0.203192
l 67 68
v 0.895021 0.3 0.12802
v 0.895021 0.3 1.12802
l 69 70
v 0.895021 0.5 0.133523
v 0.895021 0.5 -0.866477
l 71 72
v 1.62004 0.3 0.0479772
v 1.62004 0.3 -0.952023
l 73 74
v 1.62004 0.5 1e-06
v 1.62004 0.5 1
l 75 76
v 0.860011 0.5 1e-06
v 1.86001 0.5 1e-06
l 77 78
v 1.62004 0.3 1e-06
v 0.620038 0.3 1e-06
l 79 80
v 1.62004 0.5 0.0479772
v 2.62004 0.5 0.0479772
l 81 82
v 2.26004 0.5 0.0479772
v 2.26004 -0.5 0.0479772
l 83 84
v 2.26004 0.3 0.0479772
v 1.26004 0.3 0.0479772
l 85 86
v 0.75807 0.3 0.161972
v -0.239921 0.3 0.0986123
l 87 88
v 0.747401 0.5 0.161295
v 1.74539 0.5 0.224654
l 89 90
v 0.540006 0.3 0.148002
v -0.459994 0.3 0.148002
l 91 92
v 0.2 0.3 0.148002
v 0.2 1.3 0.148002
l 93 94
v 0.2 0.5 0.148002
v 1.2 0.5 0.148002
l 95 96
v 0.540006 0.5 0.148002
v 1.24836 0.5 0.853863
l 97 98
v 0.552029 0.3 0.159982
v -0.156321 0.3 -0.545879
l 99 100
v 0.624039 0.5 0.159982
v 0.624039 0.5 1.15998
l 101 102
v 0.624039 0.3 0.174376
v 0.624039 0.3 -0.825624
l 103 104
v 0.624039 0.3 0.159982
v -0.375961 0.3 0.159982
l 105 106
v 0.552029 0.5 0.159982
v 1.55203 0.5 0.159982
l 107 108
v 0.653631 0.3 0.174376
v -0.346369 0.3 0.174376
l 109 110
v 0.624039 0.5 0.174376
v 1.62404 0.5 0.174376
l 111 112
v 0.683434 0.3 0.160787
v -0.0209078 0.3 0.870647
l 113 114
v 0.681856 0.5 0.162378
v 1.3862 0.5 -0.547483
l 115 116
v 0.676095 0.5 0.16288
v 1.67232 0.5 0.0760382
l 117 118
v 0.681856 0.3 0.162378
v -0.314366 0.3 0.249219
l 119 120
v 0.670609 0.5 0.16471
v 1.61922 0.5 -0.151742
l 121 122
v 0.676095 0.3 0.16288
v -0.272514 0.3 0.479332
l 123 124
v 0.6657 0.5 0.167767
v 1.51452 0.5 -0.360908
l 125 126
v 0.670609 0.3 0.16471
v -0.178215 0.3 0.693385
l 127 128
v 0.662275 0.5 0.170961
v 1.39374 0.5 -0.510922
l 129 130
v 0.6657 0.3 0.167767
v -0.0657613 0.3 0.84965
l 131 132
v 0.658167 0.5 0.17321
v 1.53528 0.5 -0.307068
l 133 134
v 0.662275 0.3 0.170961
v -0.214842 0.3 0.651238
l 135 136
v 0.653631 0.5 0.174376
v 1.62214 0.5 -0.0746167
l 137 138
v 0.658167 0.3 0.17321
v -0.310339 0.3 0.422202
l 139 140
v 0.747401 0.3 0.161295
v -0.251458 0.3 0.113542
l 141 142
v 0.736776 0.5 0.160787
v 1.73563 0.5 0.208539
l 143 144
v 0.736776 0.3 0.160787
v -0.262721 0.3 0.129054
l 145 146
v 0.726107 0.5 0.160448
v 1.7256 0.5 0.192181
l 147 148
v 0.726107 0.3 0.160448
v -0.273767 0.3 0.144581
l 149 150
v 0.715439 0.5 0.160279
v 1.71531 0.5 0.176145
l 151 152
v 0.715439 0.3 0.160279
v -0.284561 0.3 0.160279
l 153 154
v 0.704771 0.5 0.160279
v 1.70477 0.5 0.160279
l 155 156
v 0.704771 0.3 0.160279
v -0.295103 0.3 0.176145
l 157 158
v 0.694103 0.5 0.160448
v 1.69398 0.5 0.144581
l 159 160
v 0.694103 0.3 0.160448
v -0.305394 0.3 0.192181
l 161 162
v 0.683434 0.5 0.160787
v 1.68293 0.5 0.129054
l 163 164
