# Wavefront OBJ file written 2025-11-26T15:06:43
o lowerWall_edgeMesh

# points : 68
# lines  : 82

# <points count="68">
v 0.786857 0.5 0.149991
v 0.786857 0.3 0.149991
v 0.81399 0.3 0.0943601
v 0.81399 0.5 0.0943601
v 0.860011 0.3 1e-06
v 0.860011 0.5 1e-06
v 0.895021 0.5 0.133523
v 0.895021 0.3 0.133523
v 0.848411 0.3 0.131534
v 0.848411 0.5 0.131534
v 0.895021 0.3 0.12802
v 0.895021 0.5 0.12802
v 1.62004 0.3 1e-06
v 1.62004 0.5 1e-06
v 1.62004 0.3 0.0479772
v 1.62004 0.5 0.0479772
v 2.26004 0.5 0.0479772
v 2.26004 0.3 0.0479772
v 0.540006 0.3 0.148002
v 0.2 0.3 0.148002
v 0.540006 0.5 0.148002
v 0.2 0.5 0.148002
v 0.552029 0.5 0.159982
v 0.552029 0.3 0.159982
v 0.624039 0.5 0.174376
v 0.624039 0.3 0.174376
v 0.624039 0.5 0.159982
v 0.624039 0.3 0.159982
v 0.683434 0.3 0.160787
v 0.681856 0.3 0.162378
v 0.683434 0.5 0.160787
v 0.681856 0.5 0.162378
v 0.768696 0.3 0.162819
v 0.75807 0.3 0.161972
v 0.75807 0.5 0.161972
v 0.768696 0.5 0.162819
v 0.781938 0.5 0.15574
v 0.781938 0.3 0.15574
v 0.775758 0.5 0.160105
v 0.775758 0.3 0.160105
v 0.859755 0.5 0.143551
v 0.859755 0.3 0.143551
v 0.823509 0.3 0.14907
v 0.823509 0.5 0.14907
v 0.747401 0.3 0.161295
v 0.747401 0.5 0.161295
v 0.653631 0.3 0.174376
v 0.653631 0.5 0.174376
v 0.676095 0.5 0.16288
v 0.676095 0.3 0.16288
v 0.670609 0.5 0.16471
v 0.670609 0.3 0.16471
v 0.6657 0.5 0.167767
v 0.6657 0.3 0.167767
v 0.662275 0.5 0.170961
v 0.662275 0.3 0.170961
v 0.658167 0.5 0.17321
v 0.658167 0.3 0.17321
v 0.736776 0.3 0.160787
v 0.736776 0.5 0.160787
v 0.726107 0.3 0.160448
v 0.726107 0.5 0.160448
v 0.715439 0.3 0.160279
v 0.715439 0.5 0.160279
v 0.704771 0.3 0.160279
v 0.704771 0.5 0.160279
v 0.694103 0.3 0.160448
v 0.694103 0.5 0.160448
# </points>

# <edges count="82">
l 1 2
l 3 4
l 6 5
l 9 10
l 13 14
l 21 19
l 28 27
l 31 29
l 7 8
l 11 12
l 16 15
l 23 24
l 25 26
l 30 32
l 33 34
l 35 36
l 37 1
l 2 38
l 39 37
l 38 40
l 36 39
l 40 33
l 5 3
l 4 6
l 41 7
l 8 42
l 42 43
l 43 2
l 1 44
l 44 41
l 3 9
l 10 4
l 9 11
l 12 10
l 11 8
l 7 12
l 15 13
l 14 16
l 6 14
l 13 5
l 16 17
l 17 18
l 18 15
l 34 45
l 46 35
l 19 20
l 20 22
l 22 21
l 21 23
l 24 19
l 27 25
l 26 28
l 28 24
l 23 27
l 47 26
l 25 48
l 29 30
l 32 31
l 49 32
l 30 50
l 51 49
l 50 52
l 53 51
l 52 54
l 55 53
l 54 56
l 57 55
l 56 58
l 48 57
l 58 47
l 45 59
l 60 46
l 59 61
l 62 60
l 61 63
l 64 62
l 63 65
l 66 64
l 65 67
l 68 66
l 67 29
l 31 68
# </edges>
