solid STL generated by MeshLab
  facet normal  0.000000e+00 -0.000000e+00 -1.000000e+00
    outer loop
      vertex   7.213837e-01  2.908720e-01  1.000000e-06
      vertex   2.100001e+00  2.908720e-01  1.000000e-06
      vertex   7.143670e-01  2.787098e-01  1.000000e-06
    endloop
  endfacet
  facet normal  0.000000e+00 -0.000000e+00 -1.000000e+00
    outer loop
      vertex   7.143670e-01  2.787098e-01  1.000000e-06
      vertex   2.100001e+00  2.908720e-01  1.000000e-06
      vertex   7.056169e-01  2.677283e-01  1.000000e-06
    endloop
  endfacet
  facet normal  0.000000e+00 -0.000000e+00 -1.000000e+00
    outer loop
      vertex   7.056169e-01  2.677283e-01  1.000000e-06
      vertex   2.100001e+00  2.908720e-01  1.000000e-06
      vertex   6.953288e-01  2.581727e-01  1.000000e-06
    endloop
  endfacet
  facet normal  0.000000e+00  0.000000e+00 -1.000000e+00
    outer loop
      vertex   6.953288e-01  2.581727e-01  1.000000e-06
      vertex   2.100001e+00  2.908720e-01  1.000000e-06
      vertex   1.451343e+00  4.797620e-02  1.000000e-06
    endloop
  endfacet
  facet normal  0.000000e+00 -0.000000e+00 -1.000000e+00
    outer loop
      vertex   6.953288e-01  2.581727e-01  1.000000e-06
      vertex   1.451343e+00  4.797620e-02  1.000000e-06
      vertex   6.148406e-01  1.816025e-01  1.000000e-06
    endloop
  endfacet
  facet normal  0.000000e+00  0.000000e+00 -1.000000e+00
    outer loop
      vertex   6.148406e-01  1.816025e-01  1.000000e-06
      vertex   1.451343e+00  4.797620e-02  1.000000e-06
      vertex   6.181624e-01  1.499904e-01  1.000000e-06
    endloop
  endfacet
  facet normal  0.000000e+00 -0.000000e+00 -1.000000e+00
    outer loop
      vertex   6.148406e-01  1.816025e-01  1.000000e-06
      vertex   6.181624e-01  1.499904e-01  1.000000e-06
      vertex   6.132438e-01  1.557394e-01  1.000000e-06
    endloop
  endfacet
  facet normal  0.000000e+00  0.000000e+00 -1.000000e+00
    outer loop
      vertex   2.100001e+00  4.800000e-02  1.000000e-06
      vertex   1.491343e+00  4.800000e-02  1.000000e-06
      vertex   2.100001e+00  2.908720e-01  1.000000e-06
    endloop
  endfacet
  facet normal  0.000000e+00  0.000000e+00 -1.000000e+00
    outer loop
      vertex   2.100001e+00  2.908720e-01  1.000000e-06
      vertex   1.491343e+00  4.800000e-02  1.000000e-06
      vertex   1.451343e+00  4.797620e-02  1.000000e-06
    endloop
  endfacet
  facet normal  0.000000e+00  0.000000e+00 -1.000000e+00
    outer loop
      vertex   1.451343e+00  5.551115e-14  1.000000e-06
      vertex   6.913160e-01  5.551115e-14  1.000000e-06
      vertex   1.451343e+00  4.797620e-02  1.000000e-06
    endloop
  endfacet
  facet normal -0.000000e+00  0.000000e+00 -1.000000e+00
    outer loop
      vertex   1.451343e+00  4.797620e-02  1.000000e-06
      vertex   6.913160e-01  5.551115e-14  1.000000e-06
      vertex   6.181624e-01  1.499904e-01  1.000000e-06
    endloop
  endfacet
  facet normal  0.000000e+00  0.000000e+00 -1.000000e+00
    outer loop
      vertex   6.148406e-01  1.816025e-01  1.000000e-06
      vertex   6.132438e-01  1.557394e-01  1.000000e-06
      vertex   6.069604e-01  1.725601e-01  1.000000e-06
    endloop
  endfacet
  facet normal  0.000000e+00  0.000000e+00 -1.000000e+00
    outer loop
      vertex   6.069604e-01  1.725601e-01  1.000000e-06
      vertex   6.132438e-01  1.557394e-01  1.000000e-06
      vertex   6.070638e-01  1.601043e-01  1.000000e-06
    endloop
  endfacet
  facet normal  0.000000e+00 -0.000000e+00 -1.000000e+00
    outer loop
      vertex   6.069604e-01  1.725601e-01  1.000000e-06
      vertex   6.070638e-01  1.601043e-01  1.000000e-06
      vertex   6.000010e-01  1.628176e-01  1.000000e-06
    endloop
  endfacet
  facet normal -0.000000e+00  0.000000e+00 -1.000000e+00
    outer loop
      vertex   6.000010e-01  1.628176e-01  1.000000e-06
      vertex   5.893751e-01  1.619709e-01  1.000000e-06
      vertex   6.069604e-01  1.725601e-01  1.000000e-06
    endloop
  endfacet
  facet normal  0.000000e+00  0.000000e+00 -1.000000e+00
    outer loop
      vertex   6.069604e-01  1.725601e-01  1.000000e-06
      vertex   5.893751e-01  1.619709e-01  1.000000e-06
      vertex   5.787069e-01  1.612936e-01  1.000000e-06
    endloop
  endfacet
  facet normal  0.000000e+00  0.000000e+00 -1.000000e+00
    outer loop
      vertex   6.069604e-01  1.725601e-01  1.000000e-06
      vertex   5.787069e-01  1.612936e-01  1.000000e-06
      vertex   5.680810e-01  1.607856e-01  1.000000e-06
    endloop
  endfacet
  facet normal -0.000000e+00  0.000000e+00 -1.000000e+00
    outer loop
      vertex   5.680810e-01  1.607856e-01  1.000000e-06
      vertex   5.574127e-01  1.604469e-01  1.000000e-06
      vertex   6.069604e-01  1.725601e-01  1.000000e-06
    endloop
  endfacet
  facet normal  0.000000e+00  0.000000e+00 -1.000000e+00
    outer loop
      vertex   6.069604e-01  1.725601e-01  1.000000e-06
      vertex   5.574127e-01  1.604469e-01  1.000000e-06
      vertex   5.467445e-01  1.602776e-01  1.000000e-06
    endloop
  endfacet
  facet normal  0.000000e+00  0.000000e+00 -1.000000e+00
    outer loop
      vertex   6.069604e-01  1.725601e-01  1.000000e-06
      vertex   5.467445e-01  1.602776e-01  1.000000e-06
      vertex   5.131612e-01  1.623766e-01  1.000000e-06
    endloop
  endfacet
  facet normal  0.000000e+00  0.000000e+00 -1.000000e+00
    outer loop
      vertex   5.131612e-01  1.623766e-01  1.000000e-06
      vertex   5.467445e-01  1.602776e-01  1.000000e-06
      vertex   5.360762e-01  1.602776e-01  1.000000e-06
    endloop
  endfacet
  facet normal  0.000000e+00  0.000000e+00 -1.000000e+00
    outer loop
      vertex   5.131612e-01  1.623766e-01  1.000000e-06
      vertex   5.360762e-01  1.602776e-01  1.000000e-06
      vertex   5.254080e-01  1.604469e-01  1.000000e-06
    endloop
  endfacet
  facet normal  0.000000e+00  0.000000e+00 -1.000000e+00
    outer loop
      vertex   5.254080e-01  1.604469e-01  1.000000e-06
      vertex   5.147398e-01  1.607856e-01  1.000000e-06
      vertex   5.131612e-01  1.623766e-01  1.000000e-06
    endloop
  endfacet
  facet normal  0.000000e+00  0.000000e+00 -1.000000e+00
    outer loop
      vertex   5.074001e-01  1.628788e-01  1.000000e-06
      vertex   5.019144e-01  1.647088e-01  1.000000e-06
      vertex   5.131612e-01  1.623766e-01  1.000000e-06
    endloop
  endfacet
  facet normal  0.000000e+00  0.000000e+00 -1.000000e+00
    outer loop
      vertex   5.131612e-01  1.623766e-01  1.000000e-06
      vertex   5.019144e-01  1.647088e-01  1.000000e-06
      vertex   4.970057e-01  1.677661e-01  1.000000e-06
    endloop
  endfacet
  facet normal  0.000000e+00  0.000000e+00 -1.000000e+00
    outer loop
      vertex   5.131612e-01  1.623766e-01  1.000000e-06
      vertex   4.970057e-01  1.677661e-01  1.000000e-06
      vertex   6.069604e-01  1.725601e-01  1.000000e-06
    endloop
  endfacet
  facet normal  0.000000e+00  0.000000e+00 -1.000000e+00
    outer loop
      vertex   6.069604e-01  1.725601e-01  1.000000e-06
      vertex   4.970057e-01  1.677661e-01  1.000000e-06
      vertex   4.935800e-01  1.709595e-01  1.000000e-06
    endloop
  endfacet
  facet normal -0.000000e+00  0.000000e+00 -1.000000e+00
    outer loop
      vertex   6.069604e-01  1.725601e-01  1.000000e-06
      vertex   4.935800e-01  1.709595e-01  1.000000e-06
      vertex   5.979324e-01  1.804005e-01  1.000000e-06
    endloop
  endfacet
  facet normal  0.000000e+00  0.000000e+00 -1.000000e+00
    outer loop
      vertex   5.979324e-01  1.804005e-01  1.000000e-06
      vertex   4.935800e-01  1.709595e-01  1.000000e-06
      vertex   4.894722e-01  1.732088e-01  1.000000e-06
    endloop
  endfacet
  facet normal  0.000000e+00  0.000000e+00 -1.000000e+00
    outer loop
      vertex   5.979324e-01  1.804005e-01  1.000000e-06
      vertex   4.894722e-01  1.732088e-01  1.000000e-06
      vertex   4.849364e-01  1.743749e-01  1.000000e-06
    endloop
  endfacet
  facet normal -0.000000e+00  0.000000e+00 -1.000000e+00
    outer loop
      vertex   5.979324e-01  1.804005e-01  1.000000e-06
      vertex   4.849364e-01  1.743749e-01  1.000000e-06
      vertex   5.743741e-01  2.136565e-01  1.000000e-06
    endloop
  endfacet
  facet normal  0.000000e+00  0.000000e+00 -1.000000e+00
    outer loop
      vertex   5.743741e-01  2.136565e-01  1.000000e-06
      vertex   4.849364e-01  1.743749e-01  1.000000e-06
      vertex   4.553448e-01  1.743749e-01  1.000000e-06
    endloop
  endfacet
  facet normal -0.000000e+00  0.000000e+00 -1.000000e+00
    outer loop
      vertex   5.743741e-01  2.136565e-01  1.000000e-06
      vertex   4.553448e-01  1.743749e-01  1.000000e-06
      vertex   5.587099e-01  2.512808e-01  1.000000e-06
    endloop
  endfacet
  facet normal  0.000000e+00  0.000000e+00 -1.000000e+00
    outer loop
      vertex   5.587099e-01  2.512808e-01  1.000000e-06
      vertex   4.553448e-01  1.743749e-01  1.000000e-06
      vertex   1.000000e-06  1.480006e-01  1.000000e-06
    endloop
  endfacet
  facet normal -0.000000e+00  0.000000e+00 -1.000000e+00
    outer loop
      vertex   5.587099e-01  2.512808e-01  1.000000e-06
      vertex   1.000000e-06  1.480006e-01  1.000000e-06
      vertex   5.517073e-01  2.914295e-01  1.000000e-06
    endloop
  endfacet
  facet normal -0.000000e+00  0.000000e+00 -1.000000e+00
    outer loop
      vertex   5.517073e-01  2.914295e-01  1.000000e-06
      vertex   1.000000e-06  1.480006e-01  1.000000e-06
      vertex   5.445958e-01  3.127305e-01  1.000000e-06
    endloop
  endfacet
  facet normal  1.144237e-13 -3.782833e-13 -1.000000e+00
    outer loop
      vertex   5.445958e-01  3.127305e-01  1.000000e-06
      vertex   1.000000e-06  1.480006e-01  1.000000e-06
      vertex   1.000000e-06  4.485342e-01  1.000000e-06
    endloop
  endfacet
  facet normal  2.131640e-13  1.768111e-14 -1.000000e+00
    outer loop
      vertex   5.445958e-01  3.127305e-01  1.000000e-06
      vertex   1.000000e-06  4.485342e-01  1.000000e-06
      vertex   5.427395e-01  3.351104e-01  1.000000e-06
    endloop
  endfacet
  facet normal  2.027733e-13 -3.203870e-14 -1.000000e+00
    outer loop
      vertex   5.427395e-01  3.351104e-01  1.000000e-06
      vertex   1.000000e-06  4.485342e-01  1.000000e-06
      vertex   5.462442e-01  3.572921e-01  1.000000e-06
    endloop
  endfacet
  facet normal  1.945330e-13 -8.137163e-14 -1.000000e+00
    outer loop
      vertex   5.462442e-01  3.572921e-01  1.000000e-06
      vertex   1.000000e-06  4.485342e-01  1.000000e-06
      vertex   5.549101e-01  3.780094e-01  1.000000e-06
    endloop
  endfacet
  facet normal  1.873111e-13 -1.381958e-13 -1.000000e+00
    outer loop
      vertex   5.549101e-01  3.780094e-01  1.000000e-06
      vertex   1.000000e-06  4.485342e-01  1.000000e-06
      vertex   5.682425e-01  3.960803e-01  1.000000e-06
    endloop
  endfacet
  facet normal  1.801510e-13 -2.157625e-13 -1.000000e+00
    outer loop
      vertex   5.682425e-01  3.960803e-01  1.000000e-06
      vertex   1.000000e-06  4.485342e-01  1.000000e-06
      vertex   5.854806e-01  4.104732e-01  1.000000e-06
    endloop
  endfacet
  facet normal  0.000000e+00 -2.986965e-12 -1.000000e+00
    outer loop
      vertex   5.854806e-01  4.104732e-01  1.000000e-06
      vertex   1.000000e-06  4.485342e-01  1.000000e-06
      vertex   5.854806e-01  4.485342e-01  1.000000e-06
    endloop
  endfacet
  facet normal  0.000000e+00  0.000000e+00 -1.000000e+00
    outer loop
      vertex   4.553448e-01  1.599812e-01  1.000000e-06
      vertex   3.833342e-01  1.599812e-01  1.000000e-06
      vertex   4.553448e-01  1.743749e-01  1.000000e-06
    endloop
  endfacet
  facet normal  0.000000e+00  0.000000e+00 -1.000000e+00
    outer loop
      vertex   4.553448e-01  1.743749e-01  1.000000e-06
      vertex   3.833342e-01  1.599812e-01  1.000000e-06
      vertex   1.000000e-06  1.480006e-01  1.000000e-06
    endloop
  endfacet
  facet normal  0.000000e+00  0.000000e+00 -1.000000e+00
    outer loop
      vertex   3.833342e-01  1.599812e-01  1.000000e-06
      vertex   3.713112e-01  1.480006e-01  1.000000e-06
      vertex   1.000000e-06  1.480006e-01  1.000000e-06
    endloop
  endfacet
  facet normal  0.000000e+00  0.000000e+00 -1.000000e+00
    outer loop
      vertex   6.148406e-01  1.816025e-01  1.000000e-06
      vertex   6.101453e-01  1.901649e-01  1.000000e-06
      vertex   6.953288e-01  2.581727e-01  1.000000e-06
    endloop
  endfacet
endsolid vcg
