solid STL generated by MeshLab
  facet normal  0.000000e+00 -1.000000e+00  0.000000e+00
    outer loop
      vertex   1.491343e+00  4.800000e-02  1.000000e-06
      vertex   2.100001e+00  4.800000e-02  1.000000e-06
      vertex   1.491343e+00  4.800000e-02  2.000010e-01
    endloop
  endfacet
  facet normal  0.000000e+00 -1.000000e+00  0.000000e+00
    outer loop
      vertex   1.491343e+00  4.800000e-02  2.000010e-01
      vertex   2.100001e+00  4.800000e-02  1.000000e-06
      vertex   2.100001e+00  4.800000e-02  2.000010e-01
    endloop
  endfacet
  facet normal  5.949293e-04 -9.999999e-01  0.000000e+00
    outer loop
      vertex   1.451343e+00  4.797620e-02  1.000000e-06
      vertex   1.491343e+00  4.800000e-02  1.000000e-06
      vertex   1.451343e+00  4.797620e-02  2.000010e-01
    endloop
  endfacet
  facet normal  5.949293e-04 -9.999999e-01  0.000000e+00
    outer loop
      vertex   1.451343e+00  4.797620e-02  2.000010e-01
      vertex   1.491343e+00  4.800000e-02  1.000000e-06
      vertex   1.491343e+00  4.800000e-02  2.000010e-01
    endloop
  endfacet
  facet normal  6.336448e-02 -9.979905e-01  0.000000e+00
    outer loop
      vertex   5.787069e-01  1.612936e-01  1.000000e-06
      vertex   5.893751e-01  1.619709e-01  1.000000e-06
      vertex   5.787069e-01  1.612936e-01  2.000010e-01
    endloop
  endfacet
  facet normal  6.336448e-02 -9.979905e-01  0.000000e+00
    outer loop
      vertex   5.787069e-01  1.612936e-01  2.000010e-01
      vertex   5.893751e-01  1.619709e-01  1.000000e-06
      vertex   5.893751e-01  1.619709e-01  2.000010e-01
    endloop
  endfacet
  facet normal  7.942941e-02 -9.968405e-01  0.000000e+00
    outer loop
      vertex   5.893751e-01  1.619709e-01  1.000000e-06
      vertex   6.000010e-01  1.628176e-01  1.000000e-06
      vertex   5.893751e-01  1.619709e-01  2.000010e-01
    endloop
  endfacet
  facet normal  7.942941e-02 -9.968405e-01  0.000000e+00
    outer loop
      vertex   5.893751e-01  1.619709e-01  2.000010e-01
      vertex   6.000010e-01  1.628176e-01  1.000000e-06
      vertex   6.000010e-01  1.628176e-01  2.000010e-01
    endloop
  endfacet
  facet normal -3.586145e-01 -9.334857e-01 -0.000000e+00
    outer loop
      vertex   6.000010e-01  1.628176e-01  2.000010e-01
      vertex   6.000010e-01  1.628176e-01  1.000000e-06
      vertex   6.070638e-01  1.601043e-01  2.000010e-01
    endloop
  endfacet
  facet normal -3.586145e-01 -9.334857e-01 -0.000000e+00
    outer loop
      vertex   6.070638e-01  1.601043e-01  2.000010e-01
      vertex   6.000010e-01  1.628176e-01  1.000000e-06
      vertex   6.070638e-01  1.601043e-01  1.000000e-06
    endloop
  endfacet
  facet normal -5.769093e-01 -8.168082e-01 -0.000000e+00
    outer loop
      vertex   6.070638e-01  1.601043e-01  2.000010e-01
      vertex   6.070638e-01  1.601043e-01  1.000000e-06
      vertex   6.132438e-01  1.557394e-01  2.000010e-01
    endloop
  endfacet
  facet normal -5.769093e-01 -8.168082e-01 -0.000000e+00
    outer loop
      vertex   6.132438e-01  1.557394e-01  2.000010e-01
      vertex   6.070638e-01  1.601043e-01  1.000000e-06
      vertex   6.132438e-01  1.557394e-01  1.000000e-06
    endloop
  endfacet
  facet normal -7.598535e-01 -6.500943e-01 -0.000000e+00
    outer loop
      vertex   6.132438e-01  1.557394e-01  2.000010e-01
      vertex   6.132438e-01  1.557394e-01  1.000000e-06
      vertex   6.181624e-01  1.499904e-01  2.000010e-01
    endloop
  endfacet
  facet normal -7.598535e-01 -6.500943e-01 -0.000000e+00
    outer loop
      vertex   6.181624e-01  1.499904e-01  2.000010e-01
      vertex   6.132438e-01  1.557394e-01  1.000000e-06
      vertex   6.181624e-01  1.499904e-01  1.000000e-06
    endloop
  endfacet
  facet normal  0.000000e+00 -1.000000e+00  0.000000e+00
    outer loop
      vertex   1.451343e+00  5.551115e-14  1.000000e-06
      vertex   1.451343e+00  5.551115e-14  2.000010e-01
      vertex   6.913160e-01  5.551115e-14  1.000000e-06
    endloop
  endfacet
  facet normal  0.000000e+00 -1.000000e+00  0.000000e+00
    outer loop
      vertex   6.913160e-01  5.551115e-14  1.000000e-06
      vertex   1.451343e+00  5.551115e-14  2.000010e-01
      vertex   6.913160e-01  5.551115e-14  2.000010e-01
    endloop
  endfacet
  facet normal  1.000000e+00  0.000000e+00 -0.000000e+00
    outer loop
      vertex   1.451343e+00  4.797620e-02  1.000000e-06
      vertex   1.451343e+00  4.797620e-02  2.000010e-01
      vertex   1.451343e+00  5.551115e-14  1.000000e-06
    endloop
  endfacet
  facet normal  1.000000e+00  0.000000e+00  0.000000e+00
    outer loop
      vertex   1.451343e+00  5.551115e-14  1.000000e-06
      vertex   1.451343e+00  4.797620e-02  2.000010e-01
      vertex   1.451343e+00  5.551115e-14  2.000010e-01
    endloop
  endfacet
  facet normal  0.000000e+00 -1.000000e+00  0.000000e+00
    outer loop
      vertex   1.000000e-06  1.480006e-01  1.000000e-06
      vertex   3.713112e-01  1.480006e-01  1.000000e-06
      vertex   1.000000e-06  1.480006e-01  2.000010e-01
    endloop
  endfacet
  facet normal  0.000000e+00 -1.000000e+00  0.000000e+00
    outer loop
      vertex   1.000000e-06  1.480006e-01  2.000010e-01
      vertex   3.713112e-01  1.480006e-01  1.000000e-06
      vertex   3.713112e-01  1.480006e-01  2.000010e-01
    endloop
  endfacet
  facet normal  7.058594e-01 -7.083519e-01  0.000000e+00
    outer loop
      vertex   3.833342e-01  1.599812e-01  1.000000e-06
      vertex   3.833342e-01  1.599812e-01  2.000010e-01
      vertex   3.713112e-01  1.480006e-01  1.000000e-06
    endloop
  endfacet
  facet normal  7.058594e-01 -7.083519e-01  0.000000e+00
    outer loop
      vertex   3.713112e-01  1.480006e-01  1.000000e-06
      vertex   3.833342e-01  1.599812e-01  2.000010e-01
      vertex   3.713112e-01  1.480006e-01  2.000010e-01
    endloop
  endfacet
  facet normal  1.000000e+00  0.000000e+00 -0.000000e+00
    outer loop
      vertex   4.553448e-01  1.743749e-01  1.000000e-06
      vertex   4.553448e-01  1.743749e-01  2.000010e-01
      vertex   4.553448e-01  1.599812e-01  1.000000e-06
    endloop
  endfacet
  facet normal  1.000000e+00  0.000000e+00  0.000000e+00
    outer loop
      vertex   4.553448e-01  1.599812e-01  1.000000e-06
      vertex   4.553448e-01  1.743749e-01  2.000010e-01
      vertex   4.553448e-01  1.599812e-01  2.000010e-01
    endloop
  endfacet
  facet normal  0.000000e+00 -1.000000e+00  0.000000e+00
    outer loop
      vertex   3.833342e-01  1.599812e-01  1.000000e-06
      vertex   4.553448e-01  1.599812e-01  1.000000e-06
      vertex   3.833342e-01  1.599812e-01  2.000010e-01
    endloop
  endfacet
  facet normal  0.000000e+00 -1.000000e+00  0.000000e+00
    outer loop
      vertex   3.833342e-01  1.599812e-01  2.000010e-01
      vertex   4.553448e-01  1.599812e-01  1.000000e-06
      vertex   4.553448e-01  1.599812e-01  2.000010e-01
    endloop
  endfacet
  facet normal  0.000000e+00 -1.000000e+00  0.000000e+00
    outer loop
      vertex   4.553448e-01  1.743749e-01  1.000000e-06
      vertex   4.849364e-01  1.743749e-01  1.000000e-06
      vertex   4.553448e-01  1.743749e-01  2.000010e-01
    endloop
  endfacet
  facet normal  0.000000e+00 -1.000000e+00  0.000000e+00
    outer loop
      vertex   4.553448e-01  1.743749e-01  2.000010e-01
      vertex   4.849364e-01  1.743749e-01  1.000000e-06
      vertex   4.849364e-01  1.743749e-01  2.000010e-01
    endloop
  endfacet
  facet normal -7.098771e-01 -7.043255e-01  0.000000e+00
    outer loop
      vertex   5.131612e-01  1.623766e-01  1.000000e-06
      vertex   5.147398e-01  1.607856e-01  1.000000e-06
      vertex   5.131612e-01  1.623766e-01  2.000010e-01
    endloop
  endfacet
  facet normal -7.098771e-01 -7.043255e-01  0.000000e+00
    outer loop
      vertex   5.131612e-01  1.623766e-01  2.000010e-01
      vertex   5.147398e-01  1.607856e-01  1.000000e-06
      vertex   5.147398e-01  1.607856e-01  2.000010e-01
    endloop
  endfacet
  facet normal -5.286748e-01 -8.488244e-01 -0.000000e+00
    outer loop
      vertex   4.970057e-01  1.677661e-01  2.000010e-01
      vertex   4.970057e-01  1.677661e-01  1.000000e-06
      vertex   5.019144e-01  1.647088e-01  2.000010e-01
    endloop
  endfacet
  facet normal -5.286748e-01 -8.488244e-01 -0.000000e+00
    outer loop
      vertex   5.019144e-01  1.647088e-01  2.000010e-01
      vertex   4.970057e-01  1.677661e-01  1.000000e-06
      vertex   5.019144e-01  1.647088e-01  1.000000e-06
    endloop
  endfacet
  facet normal -3.164566e-01 -9.486070e-01 -0.000000e+00
    outer loop
      vertex   5.019144e-01  1.647088e-01  2.000010e-01
      vertex   5.019144e-01  1.647088e-01  1.000000e-06
      vertex   5.074001e-01  1.628788e-01  2.000010e-01
    endloop
  endfacet
  facet normal -3.164566e-01 -9.486070e-01 -0.000000e+00
    outer loop
      vertex   5.074001e-01  1.628788e-01  2.000010e-01
      vertex   5.019144e-01  1.647088e-01  1.000000e-06
      vertex   5.074001e-01  1.628788e-01  1.000000e-06
    endloop
  endfacet
  facet normal -8.683643e-02 -9.962226e-01 -0.000000e+00
    outer loop
      vertex   5.074001e-01  1.628788e-01  2.000010e-01
      vertex   5.074001e-01  1.628788e-01  1.000000e-06
      vertex   5.131612e-01  1.623766e-01  2.000010e-01
    endloop
  endfacet
  facet normal -8.683643e-02 -9.962226e-01 -0.000000e+00
    outer loop
      vertex   5.131612e-01  1.623766e-01  2.000010e-01
      vertex   5.074001e-01  1.628788e-01  1.000000e-06
      vertex   5.131612e-01  1.623766e-01  1.000000e-06
    endloop
  endfacet
  facet normal -2.489882e-01 -9.685065e-01 -0.000000e+00
    outer loop
      vertex   4.849364e-01  1.743749e-01  2.000010e-01
      vertex   4.849364e-01  1.743749e-01  1.000000e-06
      vertex   4.894722e-01  1.732088e-01  2.000010e-01
    endloop
  endfacet
  facet normal -2.489882e-01 -9.685065e-01 -0.000000e+00
    outer loop
      vertex   4.894722e-01  1.732088e-01  2.000010e-01
      vertex   4.849364e-01  1.743749e-01  1.000000e-06
      vertex   4.894722e-01  1.732088e-01  1.000000e-06
    endloop
  endfacet
  facet normal -4.802827e-01 -8.771138e-01 -0.000000e+00
    outer loop
      vertex   4.894722e-01  1.732088e-01  2.000010e-01
      vertex   4.894722e-01  1.732088e-01  1.000000e-06
      vertex   4.935800e-01  1.709595e-01  2.000010e-01
    endloop
  endfacet
  facet normal -4.802827e-01 -8.771138e-01 -0.000000e+00
    outer loop
      vertex   4.935800e-01  1.709595e-01  2.000010e-01
      vertex   4.894722e-01  1.732088e-01  1.000000e-06
      vertex   4.935800e-01  1.709595e-01  1.000000e-06
    endloop
  endfacet
  facet normal -6.818730e-01 -7.314705e-01 -0.000000e+00
    outer loop
      vertex   4.935800e-01  1.709595e-01  2.000010e-01
      vertex   4.935800e-01  1.709595e-01  1.000000e-06
      vertex   4.970057e-01  1.677661e-01  2.000010e-01
    endloop
  endfacet
  facet normal -6.818730e-01 -7.314705e-01 -0.000000e+00
    outer loop
      vertex   4.970057e-01  1.677661e-01  2.000010e-01
      vertex   4.935800e-01  1.709595e-01  1.000000e-06
      vertex   4.970057e-01  1.677661e-01  1.000000e-06
    endloop
  endfacet
  facet normal  4.775415e-02 -9.988592e-01  0.000000e+00
    outer loop
      vertex   5.680810e-01  1.607856e-01  1.000000e-06
      vertex   5.787069e-01  1.612936e-01  1.000000e-06
      vertex   5.680810e-01  1.607856e-01  2.000010e-01
    endloop
  endfacet
  facet normal  4.775415e-02 -9.988592e-01  0.000000e+00
    outer loop
      vertex   5.680810e-01  1.607856e-01  2.000010e-01
      vertex   5.787069e-01  1.612936e-01  1.000000e-06
      vertex   5.787069e-01  1.612936e-01  2.000010e-01
    endloop
  endfacet
  facet normal  3.173004e-02 -9.994965e-01  0.000000e+00
    outer loop
      vertex   5.574127e-01  1.604469e-01  1.000000e-06
      vertex   5.680810e-01  1.607856e-01  1.000000e-06
      vertex   5.574127e-01  1.604469e-01  2.000010e-01
    endloop
  endfacet
  facet normal  3.173004e-02 -9.994965e-01  0.000000e+00
    outer loop
      vertex   5.574127e-01  1.604469e-01  2.000010e-01
      vertex   5.680810e-01  1.607856e-01  1.000000e-06
      vertex   5.680810e-01  1.607856e-01  2.000010e-01
    endloop
  endfacet
  facet normal  1.587093e-02 -9.998741e-01  0.000000e+00
    outer loop
      vertex   5.467445e-01  1.602776e-01  1.000000e-06
      vertex   5.574127e-01  1.604469e-01  1.000000e-06
      vertex   5.467445e-01  1.602776e-01  2.000010e-01
    endloop
  endfacet
  facet normal  1.587093e-02 -9.998741e-01  0.000000e+00
    outer loop
      vertex   5.467445e-01  1.602776e-01  2.000010e-01
      vertex   5.574127e-01  1.604469e-01  1.000000e-06
      vertex   5.574127e-01  1.604469e-01  2.000010e-01
    endloop
  endfacet
  facet normal  0.000000e+00 -1.000000e+00  0.000000e+00
    outer loop
      vertex   5.360762e-01  1.602776e-01  1.000000e-06
      vertex   5.467445e-01  1.602776e-01  1.000000e-06
      vertex   5.360762e-01  1.602776e-01  2.000010e-01
    endloop
  endfacet
  facet normal  0.000000e+00 -1.000000e+00  0.000000e+00
    outer loop
      vertex   5.360762e-01  1.602776e-01  2.000010e-01
      vertex   5.467445e-01  1.602776e-01  1.000000e-06
      vertex   5.467445e-01  1.602776e-01  2.000010e-01
    endloop
  endfacet
  facet normal -1.587102e-02 -9.998741e-01  0.000000e+00
    outer loop
      vertex   5.254080e-01  1.604469e-01  1.000000e-06
      vertex   5.360762e-01  1.602776e-01  1.000000e-06
      vertex   5.254080e-01  1.604469e-01  2.000010e-01
    endloop
  endfacet
  facet normal -1.587102e-02 -9.998741e-01  0.000000e+00
    outer loop
      vertex   5.254080e-01  1.604469e-01  2.000010e-01
      vertex   5.360762e-01  1.602776e-01  1.000000e-06
      vertex   5.360762e-01  1.602776e-01  2.000010e-01
    endloop
  endfacet
  facet normal -3.172987e-02 -9.994965e-01  0.000000e+00
    outer loop
      vertex   5.147398e-01  1.607856e-01  1.000000e-06
      vertex   5.254080e-01  1.604469e-01  1.000000e-06
      vertex   5.147398e-01  1.607856e-01  2.000010e-01
    endloop
  endfacet
  facet normal -3.172987e-02 -9.994965e-01  0.000000e+00
    outer loop
      vertex   5.147398e-01  1.607856e-01  2.000010e-01
      vertex   5.254080e-01  1.604469e-01  1.000000e-06
      vertex   5.254080e-01  1.604469e-01  2.000010e-01
    endloop
  endfacet
  facet normal -8.987978e-01 -4.383636e-01 -0.000000e+00
    outer loop
      vertex   6.913160e-01  5.551115e-14  2.000010e-01
      vertex   6.181624e-01  1.499904e-01  2.000010e-01
      vertex   6.913160e-01  5.551115e-14  1.000000e-06
    endloop
  endfacet
  facet normal -8.987978e-01 -4.383636e-01  0.000000e+00
    outer loop
      vertex   6.913160e-01  5.551115e-14  1.000000e-06
      vertex   6.181624e-01  1.499904e-01  2.000010e-01
      vertex   6.181624e-01  1.499904e-01  1.000000e-06
    endloop
  endfacet
endsolid vcg
