solid STL generated by MeshLab
  facet normal  0.000000e+00  1.000000e+00  0.000000e+00
    outer loop
      vertex   1.000000e-06  4.485342e-01  1.000000e-06
      vertex   1.000000e-06  4.485342e-01  2.000010e-01
      vertex   5.854806e-01  4.485342e-01  1.000000e-06
    endloop
  endfacet
  facet normal  0.000000e+00  1.000000e+00 -0.000000e+00
    outer loop
      vertex   5.854806e-01  4.485342e-01  1.000000e-06
      vertex   1.000000e-06  4.485342e-01  2.000010e-01
      vertex   5.854806e-01  4.485342e-01  2.000010e-01
    endloop
  endfacet
endsolid vcg
