solid STL generated by MeshLab
  facet normal -8.661848e-01  4.997238e-01  0.000000e+00
    outer loop
      vertex   7.213837e-01  2.908720e-01  2.000010e-01
      vertex   7.213837e-01  2.908720e-01  1.000000e-06
      vertex   7.143670e-01  2.787098e-01  2.000010e-01
    endloop
  endfacet
  facet normal -8.661848e-01  4.997238e-01  0.000000e+00
    outer loop
      vertex   7.143670e-01  2.787098e-01  2.000010e-01
      vertex   7.213837e-01  2.908720e-01  1.000000e-06
      vertex   7.143670e-01  2.787098e-01  1.000000e-06
    endloop
  endfacet
  facet normal -7.820866e-01  6.231698e-01  0.000000e+00
    outer loop
      vertex   7.143670e-01  2.787098e-01  2.000010e-01
      vertex   7.143670e-01  2.787098e-01  1.000000e-06
      vertex   7.056169e-01  2.677283e-01  1.000000e-06
    endloop
  endfacet
  facet normal -6.805400e-01  7.327109e-01  0.000000e+00
    outer loop
      vertex   6.953288e-01  2.581727e-01  1.000000e-06
      vertex   6.953288e-01  2.581727e-01  2.000010e-01
      vertex   7.056169e-01  2.677283e-01  1.000000e-06
    endloop
  endfacet
  facet normal -6.805400e-01  7.327109e-01  0.000000e+00
    outer loop
      vertex   7.056169e-01  2.677283e-01  1.000000e-06
      vertex   6.953288e-01  2.581727e-01  2.000010e-01
      vertex   7.056169e-01  2.677283e-01  2.000010e-01
    endloop
  endfacet
  facet normal -7.820866e-01  6.231698e-01  0.000000e+00
    outer loop
      vertex   7.056169e-01  2.677283e-01  1.000000e-06
      vertex   7.056169e-01  2.677283e-01  2.000010e-01
      vertex   7.143670e-01  2.787098e-01  2.000010e-01
    endloop
  endfacet
  facet normal -6.239172e-01  7.814906e-01  0.000000e+00
    outer loop
      vertex   6.953288e-01  2.581727e-01  1.000000e-06
      vertex   6.101453e-01  1.901649e-01  1.000000e-06
      vertex   6.953288e-01  2.581727e-01  2.000010e-01
    endloop
  endfacet
  facet normal -6.239172e-01  7.814906e-01  0.000000e+00
    outer loop
      vertex   6.953288e-01  2.581727e-01  2.000010e-01
      vertex   6.101453e-01  1.901649e-01  1.000000e-06
      vertex   6.101453e-01  1.901649e-01  2.000010e-01
    endloop
  endfacet
  facet normal -8.768187e-01 -4.808211e-01  0.000000e+00
    outer loop
      vertex   6.101453e-01  1.901649e-01  1.000000e-06
      vertex   6.148406e-01  1.816025e-01  1.000000e-06
      vertex   6.101453e-01  1.901649e-01  2.000010e-01
    endloop
  endfacet
  facet normal -8.768187e-01 -4.808211e-01  0.000000e+00
    outer loop
      vertex   6.101453e-01  1.901649e-01  2.000010e-01
      vertex   6.148406e-01  1.816025e-01  1.000000e-06
      vertex   6.148406e-01  1.816025e-01  2.000010e-01
    endloop
  endfacet
  facet normal -7.538929e-01  6.569974e-01  0.000000e+00
    outer loop
      vertex   6.148406e-01  1.816025e-01  1.000000e-06
      vertex   6.069604e-01  1.725601e-01  1.000000e-06
      vertex   6.148406e-01  1.816025e-01  2.000010e-01
    endloop
  endfacet
  facet normal -7.538929e-01  6.569974e-01  0.000000e+00
    outer loop
      vertex   6.148406e-01  1.816025e-01  2.000010e-01
      vertex   6.069604e-01  1.725601e-01  1.000000e-06
      vertex   6.069604e-01  1.725601e-01  2.000010e-01
    endloop
  endfacet
  facet normal  6.557057e-01  7.550166e-01 -0.000000e+00
    outer loop
      vertex   6.069604e-01  1.725601e-01  1.000000e-06
      vertex   5.979324e-01  1.804005e-01  1.000000e-06
      vertex   6.069604e-01  1.725601e-01  2.000010e-01
    endloop
  endfacet
  facet normal  6.557057e-01  7.550166e-01  0.000000e+00
    outer loop
      vertex   6.069604e-01  1.725601e-01  2.000010e-01
      vertex   5.979324e-01  1.804005e-01  1.000000e-06
      vertex   5.979324e-01  1.804005e-01  2.000010e-01
    endloop
  endfacet
  facet normal  8.160023e-01  5.780487e-01  0.000000e+00
    outer loop
      vertex   5.979324e-01  1.804005e-01  2.000010e-01
      vertex   5.979324e-01  1.804005e-01  1.000000e-06
      vertex   5.743741e-01  2.136565e-01  2.000010e-01
    endloop
  endfacet
  facet normal  8.160023e-01  5.780487e-01  0.000000e+00
    outer loop
      vertex   5.743741e-01  2.136565e-01  2.000010e-01
      vertex   5.979324e-01  1.804005e-01  1.000000e-06
      vertex   5.743741e-01  2.136565e-01  1.000000e-06
    endloop
  endfacet
  facet normal  9.231862e-01  3.843531e-01  0.000000e+00
    outer loop
      vertex   5.743741e-01  2.136565e-01  2.000010e-01
      vertex   5.743741e-01  2.136565e-01  1.000000e-06
      vertex   5.587099e-01  2.512808e-01  2.000010e-01
    endloop
  endfacet
  facet normal  9.231862e-01  3.843531e-01  0.000000e+00
    outer loop
      vertex   5.587099e-01  2.512808e-01  2.000010e-01
      vertex   5.743741e-01  2.136565e-01  1.000000e-06
      vertex   5.587099e-01  2.512808e-01  1.000000e-06
    endloop
  endfacet
  facet normal  9.851279e-01  1.718226e-01  0.000000e+00
    outer loop
      vertex   5.587099e-01  2.512808e-01  2.000010e-01
      vertex   5.587099e-01  2.512808e-01  1.000000e-06
      vertex   5.517073e-01  2.914295e-01  2.000010e-01
    endloop
  endfacet
  facet normal  9.851279e-01  1.718226e-01  0.000000e+00
    outer loop
      vertex   5.517073e-01  2.914295e-01  2.000010e-01
      vertex   5.587099e-01  2.512808e-01  1.000000e-06
      vertex   5.517073e-01  2.914295e-01  1.000000e-06
    endloop
  endfacet
  facet normal  9.485335e-01  3.166768e-01  0.000000e+00
    outer loop
      vertex   5.517073e-01  2.914295e-01  2.000010e-01
      vertex   5.517073e-01  2.914295e-01  1.000000e-06
      vertex   5.445958e-01  3.127305e-01  2.000010e-01
    endloop
  endfacet
  facet normal  9.485335e-01  3.166768e-01  0.000000e+00
    outer loop
      vertex   5.445958e-01  3.127305e-01  2.000010e-01
      vertex   5.517073e-01  2.914295e-01  1.000000e-06
      vertex   5.445958e-01  3.127305e-01  1.000000e-06
    endloop
  endfacet
  facet normal  9.965776e-01  8.266217e-02  0.000000e+00
    outer loop
      vertex   5.445958e-01  3.127305e-01  2.000010e-01
      vertex   5.445958e-01  3.127305e-01  1.000000e-06
      vertex   5.427395e-01  3.351104e-01  2.000010e-01
    endloop
  endfacet
  facet normal  9.965776e-01  8.266217e-02  0.000000e+00
    outer loop
      vertex   5.427395e-01  3.351104e-01  2.000010e-01
      vertex   5.445958e-01  3.127305e-01  1.000000e-06
      vertex   5.427395e-01  3.351104e-01  1.000000e-06
    endloop
  endfacet
  facet normal  9.877465e-01 -1.560664e-01  0.000000e+00
    outer loop
      vertex   5.427395e-01  3.351104e-01  2.000010e-01
      vertex   5.427395e-01  3.351104e-01  1.000000e-06
      vertex   5.462442e-01  3.572921e-01  2.000010e-01
    endloop
  endfacet
  facet normal  9.877465e-01 -1.560664e-01  0.000000e+00
    outer loop
      vertex   5.462442e-01  3.572921e-01  2.000010e-01
      vertex   5.427395e-01  3.351104e-01  1.000000e-06
      vertex   5.462442e-01  3.572921e-01  1.000000e-06
    endloop
  endfacet
  facet normal  9.225436e-01 -3.858928e-01  0.000000e+00
    outer loop
      vertex   5.462442e-01  3.572921e-01  2.000010e-01
      vertex   5.462442e-01  3.572921e-01  1.000000e-06
      vertex   5.549101e-01  3.780094e-01  2.000010e-01
    endloop
  endfacet
  facet normal  9.225436e-01 -3.858928e-01  0.000000e+00
    outer loop
      vertex   5.549101e-01  3.780094e-01  2.000010e-01
      vertex   5.462442e-01  3.572921e-01  1.000000e-06
      vertex   5.549101e-01  3.780094e-01  1.000000e-06
    endloop
  endfacet
  facet normal  8.046923e-01 -5.936921e-01  0.000000e+00
    outer loop
      vertex   5.549101e-01  3.780094e-01  2.000010e-01
      vertex   5.549101e-01  3.780094e-01  1.000000e-06
      vertex   5.682425e-01  3.960803e-01  2.000010e-01
    endloop
  endfacet
  facet normal  8.046923e-01 -5.936921e-01  0.000000e+00
    outer loop
      vertex   5.682425e-01  3.960803e-01  2.000010e-01
      vertex   5.549101e-01  3.780094e-01  1.000000e-06
      vertex   5.682425e-01  3.960803e-01  1.000000e-06
    endloop
  endfacet
  facet normal  6.409166e-01 -7.676104e-01  0.000000e+00
    outer loop
      vertex   5.682425e-01  3.960803e-01  2.000010e-01
      vertex   5.682425e-01  3.960803e-01  1.000000e-06
      vertex   5.854806e-01  4.104732e-01  2.000010e-01
    endloop
  endfacet
  facet normal  6.409166e-01 -7.676104e-01  0.000000e+00
    outer loop
      vertex   5.854806e-01  4.104732e-01  2.000010e-01
      vertex   5.682425e-01  3.960803e-01  1.000000e-06
      vertex   5.854806e-01  4.104732e-01  1.000000e-06
    endloop
  endfacet
  facet normal  1.000000e+00  0.000000e+00  0.000000e+00
    outer loop
      vertex   5.854806e-01  4.104732e-01  1.000000e-06
      vertex   5.854806e-01  4.485342e-01  1.000000e-06
      vertex   5.854806e-01  4.104732e-01  2.000010e-01
    endloop
  endfacet
  facet normal  1.000000e+00 -0.000000e+00  0.000000e+00
    outer loop
      vertex   5.854806e-01  4.104732e-01  2.000010e-01
      vertex   5.854806e-01  4.485342e-01  1.000000e-06
      vertex   5.854806e-01  4.485342e-01  2.000010e-01
    endloop
  endfacet
endsolid vcg
