solid STL generated by MeshLab
  facet normal  1.000000e+00  0.000000e+00  0.000000e+00
    outer loop
      vertex   2.100001e+00  4.800000e-02  1.000000e-06
      vertex   2.100001e+00  2.908720e-01  1.000000e-06
      vertex   2.100001e+00  4.800000e-02  2.000010e-01
    endloop
  endfacet
  facet normal  1.000000e+00 -0.000000e+00  0.000000e+00
    outer loop
      vertex   2.100001e+00  4.800000e-02  2.000010e-01
      vertex   2.100001e+00  2.908720e-01  1.000000e-06
      vertex   2.100001e+00  2.908720e-01  2.000010e-01
    endloop
  endfacet
endsolid vcg
